G04 EAGLE Gerber RS-274X export*
G75*
%MOMM*%
%FSLAX34Y34*%
%LPD*%
%INTop Copper*%
%IPPOS*%
%AMOC8*
5,1,8,0,0,1.08239X$1,22.5*%
G01*
%ADD10P,1.319650X8X292.500000*%
%ADD11C,1.219200*%
%ADD12C,1.676400*%
%ADD13C,1.524000*%
%ADD14P,1.429621X8X22.500000*%
%ADD15C,2.286000*%
%ADD16C,2.006600*%
%ADD17P,4.123906X8X22.500000*%
%ADD18R,1.524000X1.524000*%
%ADD19C,1.524000*%
%ADD20C,1.943100*%
%ADD21P,1.429621X8X112.500000*%
%ADD22P,1.429621X8X202.500000*%
%ADD23R,1.498600X1.498600*%
%ADD24C,1.498600*%
%ADD25R,1.346200X1.346200*%
%ADD26C,1.346200*%
%ADD27C,1.418000*%
%ADD28C,0.152400*%
%ADD29C,0.756400*%
%ADD30C,0.812800*%

G36*
X314937Y10178D02*
X314937Y10178D01*
X315041Y10189D01*
X315058Y10197D01*
X315077Y10200D01*
X315169Y10249D01*
X315264Y10294D01*
X315278Y10307D01*
X315294Y10316D01*
X315366Y10391D01*
X315442Y10463D01*
X315451Y10480D01*
X315464Y10494D01*
X315508Y10589D01*
X315556Y10681D01*
X315559Y10700D01*
X315567Y10717D01*
X315579Y10821D01*
X315596Y10924D01*
X315592Y10943D01*
X315595Y10961D01*
X315572Y11063D01*
X315555Y11166D01*
X315546Y11183D01*
X315542Y11202D01*
X315489Y11291D01*
X315440Y11384D01*
X315426Y11397D01*
X315416Y11413D01*
X315337Y11481D01*
X315261Y11553D01*
X315240Y11563D01*
X315229Y11573D01*
X315200Y11585D01*
X315112Y11631D01*
X313059Y12437D01*
X303590Y19988D01*
X296767Y29995D01*
X293197Y41569D01*
X293197Y53681D01*
X296767Y65255D01*
X297319Y66065D01*
X298876Y68349D01*
X299914Y69871D01*
X299914Y69872D01*
X300952Y71394D01*
X300953Y71394D01*
X302509Y73678D01*
X302510Y73678D01*
X303547Y75200D01*
X303548Y75200D01*
X303590Y75262D01*
X313059Y82813D01*
X324334Y87238D01*
X336411Y88144D01*
X337799Y87827D01*
X341135Y87065D01*
X344470Y86304D01*
X347805Y85543D01*
X348220Y85448D01*
X358709Y79393D01*
X366947Y70514D01*
X369392Y65436D01*
X369436Y65374D01*
X369472Y65306D01*
X369506Y65274D01*
X369533Y65235D01*
X369595Y65189D01*
X369650Y65137D01*
X369693Y65117D01*
X369731Y65089D01*
X369804Y65065D01*
X369873Y65033D01*
X369920Y65028D01*
X369965Y65014D01*
X370042Y65015D01*
X370117Y65006D01*
X370164Y65016D01*
X370211Y65017D01*
X370283Y65042D01*
X370358Y65058D01*
X370399Y65083D01*
X370443Y65099D01*
X370504Y65145D01*
X370569Y65185D01*
X370600Y65221D01*
X370637Y65250D01*
X370679Y65314D01*
X370729Y65372D01*
X370747Y65416D01*
X370773Y65455D01*
X370792Y65529D01*
X370821Y65600D01*
X370828Y65663D01*
X370836Y65693D01*
X370834Y65719D01*
X370839Y65766D01*
X370839Y139478D01*
X370832Y139523D01*
X370834Y139569D01*
X370812Y139644D01*
X370800Y139720D01*
X370778Y139761D01*
X370765Y139805D01*
X370721Y139869D01*
X370684Y139938D01*
X370651Y139969D01*
X370625Y140007D01*
X370562Y140054D01*
X370506Y140107D01*
X370465Y140126D01*
X370428Y140154D01*
X370353Y140178D01*
X370283Y140211D01*
X370237Y140216D01*
X370194Y140230D01*
X370116Y140229D01*
X370039Y140238D01*
X369994Y140228D01*
X369948Y140228D01*
X369878Y140207D01*
X354886Y140207D01*
X354821Y140197D01*
X354756Y140196D01*
X354676Y140173D01*
X354643Y140168D01*
X354626Y140158D01*
X354595Y140149D01*
X351644Y138927D01*
X351613Y138927D01*
X351542Y138907D01*
X347908Y138937D01*
X347905Y138937D01*
X347902Y138937D01*
X344265Y138937D01*
X344236Y138949D01*
X344147Y138960D01*
X344116Y138967D01*
X344098Y138966D01*
X344070Y138969D01*
X202246Y140141D01*
X202153Y140127D01*
X202059Y140119D01*
X202032Y140108D01*
X202003Y140103D01*
X201919Y140060D01*
X201832Y140023D01*
X201804Y140000D01*
X201785Y139990D01*
X201762Y139966D01*
X201702Y139918D01*
X172511Y110727D01*
X172458Y110653D01*
X172398Y110584D01*
X172386Y110554D01*
X172367Y110528D01*
X172340Y110441D01*
X172306Y110356D01*
X172302Y110315D01*
X172295Y110292D01*
X172296Y110260D01*
X172288Y110189D01*
X172288Y101855D01*
X169465Y95040D01*
X162276Y87851D01*
X162223Y87777D01*
X162163Y87708D01*
X162151Y87678D01*
X162132Y87651D01*
X162105Y87564D01*
X162071Y87480D01*
X162067Y87439D01*
X162060Y87416D01*
X162061Y87384D01*
X162053Y87313D01*
X162053Y76179D01*
X162067Y76089D01*
X162075Y75998D01*
X162087Y75969D01*
X162092Y75937D01*
X162135Y75856D01*
X162171Y75772D01*
X162197Y75740D01*
X162208Y75719D01*
X162231Y75697D01*
X162276Y75641D01*
X176404Y61513D01*
X176404Y33737D01*
X156763Y14096D01*
X128987Y14096D01*
X109346Y33737D01*
X109346Y61513D01*
X124744Y76911D01*
X124797Y76985D01*
X124857Y77054D01*
X124869Y77085D01*
X124888Y77111D01*
X124915Y77198D01*
X124949Y77283D01*
X124953Y77324D01*
X124960Y77346D01*
X124959Y77378D01*
X124967Y77449D01*
X124967Y98997D01*
X127790Y105812D01*
X134979Y113002D01*
X135032Y113075D01*
X135092Y113145D01*
X135104Y113175D01*
X135123Y113201D01*
X135150Y113288D01*
X135184Y113373D01*
X135188Y113414D01*
X135195Y113436D01*
X135194Y113469D01*
X135202Y113540D01*
X135202Y115329D01*
X135191Y115399D01*
X135189Y115471D01*
X135171Y115520D01*
X135163Y115571D01*
X135129Y115635D01*
X135104Y115702D01*
X135072Y115743D01*
X135047Y115789D01*
X134995Y115838D01*
X134951Y115894D01*
X134907Y115922D01*
X134869Y115958D01*
X134804Y115988D01*
X134744Y116027D01*
X134693Y116040D01*
X134646Y116062D01*
X134575Y116070D01*
X134505Y116087D01*
X134453Y116083D01*
X134402Y116089D01*
X134331Y116073D01*
X134260Y116068D01*
X134212Y116048D01*
X134161Y116036D01*
X134100Y116000D01*
X134034Y115972D01*
X133978Y115927D01*
X133950Y115910D01*
X133935Y115893D01*
X133903Y115867D01*
X133413Y115377D01*
X131812Y114214D01*
X130049Y113315D01*
X128166Y112704D01*
X126745Y112479D01*
X126745Y124206D01*
X126742Y124226D01*
X126744Y124245D01*
X126722Y124347D01*
X126705Y124449D01*
X126696Y124466D01*
X126692Y124486D01*
X126639Y124575D01*
X126590Y124666D01*
X126576Y124680D01*
X126566Y124697D01*
X126487Y124764D01*
X126412Y124835D01*
X126394Y124844D01*
X126379Y124857D01*
X126283Y124895D01*
X126189Y124939D01*
X126169Y124941D01*
X126151Y124949D01*
X125984Y124967D01*
X125221Y124967D01*
X125221Y124969D01*
X125984Y124969D01*
X126004Y124972D01*
X126023Y124970D01*
X126125Y124992D01*
X126227Y125009D01*
X126244Y125018D01*
X126264Y125022D01*
X126353Y125075D01*
X126444Y125124D01*
X126458Y125138D01*
X126475Y125148D01*
X126542Y125227D01*
X126613Y125302D01*
X126622Y125320D01*
X126635Y125335D01*
X126674Y125431D01*
X126717Y125525D01*
X126719Y125545D01*
X126727Y125563D01*
X126745Y125730D01*
X126745Y137457D01*
X128166Y137232D01*
X130049Y136621D01*
X131812Y135722D01*
X133413Y134559D01*
X134813Y133159D01*
X135976Y131558D01*
X136875Y129795D01*
X137044Y129273D01*
X137079Y129206D01*
X137105Y129135D01*
X137135Y129097D01*
X137157Y129054D01*
X137211Y129002D01*
X137258Y128943D01*
X137299Y128917D01*
X137333Y128883D01*
X137402Y128850D01*
X137465Y128810D01*
X137512Y128798D01*
X137555Y128777D01*
X137631Y128768D01*
X137704Y128749D01*
X137752Y128753D01*
X137800Y128747D01*
X137874Y128763D01*
X137949Y128769D01*
X137993Y128787D01*
X138041Y128797D01*
X138106Y128835D01*
X138175Y128865D01*
X138226Y128905D01*
X138253Y128921D01*
X138270Y128941D01*
X138306Y128970D01*
X143348Y134012D01*
X178542Y169205D01*
X178578Y169256D01*
X178622Y169300D01*
X178658Y169364D01*
X181250Y171913D01*
X181251Y171915D01*
X181254Y171918D01*
X183825Y174489D01*
X183854Y174500D01*
X183912Y174546D01*
X187281Y175909D01*
X187283Y175910D01*
X187287Y175911D01*
X190646Y177303D01*
X190677Y177303D01*
X190748Y177323D01*
X194382Y177293D01*
X194385Y177293D01*
X194388Y177293D01*
X198025Y177293D01*
X198054Y177281D01*
X198143Y177270D01*
X198174Y177263D01*
X198192Y177264D01*
X198220Y177261D01*
X342450Y176069D01*
X342517Y176080D01*
X342586Y176080D01*
X342660Y176102D01*
X342693Y176107D01*
X342712Y176117D01*
X342747Y176127D01*
X345562Y177293D01*
X346858Y177293D01*
X346878Y177296D01*
X346897Y177294D01*
X346999Y177316D01*
X347101Y177332D01*
X347118Y177342D01*
X347138Y177346D01*
X347227Y177399D01*
X347318Y177448D01*
X347332Y177462D01*
X347349Y177472D01*
X347416Y177551D01*
X347488Y177626D01*
X347496Y177644D01*
X347509Y177659D01*
X347548Y177755D01*
X347591Y177849D01*
X347593Y177869D01*
X347601Y177887D01*
X347619Y178054D01*
X347619Y243112D01*
X347617Y243128D01*
X347618Y243143D01*
X347607Y243192D01*
X347606Y243255D01*
X347588Y243304D01*
X347580Y243355D01*
X347567Y243379D01*
X347566Y243383D01*
X347555Y243401D01*
X347546Y243419D01*
X347521Y243486D01*
X347489Y243527D01*
X347464Y243573D01*
X347412Y243622D01*
X347368Y243678D01*
X347324Y243706D01*
X347286Y243742D01*
X347221Y243772D01*
X347161Y243811D01*
X347110Y243824D01*
X347063Y243846D01*
X346992Y243853D01*
X346922Y243871D01*
X346870Y243867D01*
X346819Y243873D01*
X346748Y243857D01*
X346677Y243852D01*
X346629Y243832D01*
X346578Y243820D01*
X346517Y243784D01*
X346451Y243756D01*
X346403Y243717D01*
X346389Y243710D01*
X346383Y243704D01*
X346367Y243694D01*
X346352Y243676D01*
X346320Y243651D01*
X345214Y242545D01*
X341900Y241172D01*
X338312Y241172D01*
X334998Y242545D01*
X332461Y245082D01*
X331088Y248396D01*
X331088Y251984D01*
X332461Y255298D01*
X334998Y257835D01*
X338312Y259208D01*
X341900Y259208D01*
X345214Y257835D01*
X346320Y256729D01*
X346378Y256687D01*
X346430Y256638D01*
X346477Y256616D01*
X346519Y256586D01*
X346588Y256565D01*
X346653Y256534D01*
X346705Y256529D01*
X346755Y256513D01*
X346826Y256515D01*
X346897Y256507D01*
X346948Y256518D01*
X347000Y256520D01*
X347068Y256544D01*
X347138Y256560D01*
X347183Y256586D01*
X347231Y256604D01*
X347287Y256649D01*
X347349Y256686D01*
X347383Y256725D01*
X347423Y256758D01*
X347462Y256818D01*
X347509Y256873D01*
X347528Y256921D01*
X347556Y256965D01*
X347574Y257034D01*
X347601Y257101D01*
X347609Y257172D01*
X347617Y257203D01*
X347615Y257227D01*
X347619Y257268D01*
X347619Y316611D01*
X347616Y316631D01*
X347618Y316650D01*
X347596Y316752D01*
X347580Y316854D01*
X347570Y316871D01*
X347566Y316891D01*
X347513Y316980D01*
X347464Y317071D01*
X347450Y317085D01*
X347440Y317102D01*
X347361Y317169D01*
X347286Y317241D01*
X347268Y317249D01*
X347253Y317262D01*
X347157Y317301D01*
X347063Y317344D01*
X347043Y317346D01*
X347025Y317354D01*
X346858Y317372D01*
X331981Y317372D01*
X331088Y318265D01*
X331088Y334515D01*
X331981Y335408D01*
X346858Y335408D01*
X346878Y335411D01*
X346897Y335409D01*
X346999Y335431D01*
X347101Y335447D01*
X347118Y335457D01*
X347138Y335461D01*
X347227Y335514D01*
X347318Y335563D01*
X347332Y335577D01*
X347349Y335587D01*
X347416Y335666D01*
X347488Y335741D01*
X347496Y335759D01*
X347509Y335774D01*
X347548Y335870D01*
X347591Y335964D01*
X347593Y335984D01*
X347601Y336002D01*
X347619Y336169D01*
X347619Y480423D01*
X347608Y480494D01*
X347606Y480565D01*
X347588Y480614D01*
X347580Y480666D01*
X347546Y480729D01*
X347521Y480796D01*
X347489Y480837D01*
X347464Y480883D01*
X347412Y480932D01*
X347368Y480988D01*
X347324Y481017D01*
X347286Y481052D01*
X347221Y481083D01*
X347161Y481121D01*
X347110Y481134D01*
X347063Y481156D01*
X346992Y481164D01*
X346922Y481181D01*
X346870Y481177D01*
X346819Y481183D01*
X346748Y481168D01*
X346677Y481162D01*
X346629Y481142D01*
X346578Y481131D01*
X346517Y481094D01*
X346451Y481066D01*
X346395Y481021D01*
X346367Y481005D01*
X346352Y480987D01*
X346320Y480961D01*
X344270Y478911D01*
X340909Y477519D01*
X337271Y477519D01*
X333910Y478911D01*
X331337Y481484D01*
X329945Y484845D01*
X329945Y488483D01*
X331337Y491844D01*
X333910Y494417D01*
X337271Y495809D01*
X340909Y495809D01*
X344270Y494417D01*
X346320Y492367D01*
X346378Y492325D01*
X346430Y492276D01*
X346477Y492254D01*
X346519Y492223D01*
X346588Y492202D01*
X346653Y492172D01*
X346705Y492166D01*
X346755Y492151D01*
X346826Y492153D01*
X346897Y492145D01*
X346948Y492156D01*
X347000Y492157D01*
X347068Y492182D01*
X347138Y492197D01*
X347183Y492224D01*
X347231Y492242D01*
X347287Y492287D01*
X347349Y492323D01*
X347383Y492363D01*
X347423Y492395D01*
X347462Y492456D01*
X347509Y492510D01*
X347528Y492559D01*
X347556Y492602D01*
X347574Y492672D01*
X347601Y492738D01*
X347609Y492810D01*
X347617Y492841D01*
X347615Y492864D01*
X347619Y492905D01*
X347619Y556623D01*
X347608Y556694D01*
X347606Y556765D01*
X347588Y556814D01*
X347580Y556866D01*
X347546Y556929D01*
X347521Y556996D01*
X347489Y557037D01*
X347464Y557083D01*
X347412Y557132D01*
X347368Y557188D01*
X347324Y557217D01*
X347286Y557252D01*
X347221Y557283D01*
X347161Y557321D01*
X347110Y557334D01*
X347063Y557356D01*
X346992Y557364D01*
X346922Y557381D01*
X346870Y557377D01*
X346819Y557383D01*
X346748Y557368D01*
X346677Y557362D01*
X346629Y557342D01*
X346578Y557331D01*
X346517Y557294D01*
X346451Y557266D01*
X346395Y557221D01*
X346367Y557205D01*
X346352Y557187D01*
X346320Y557161D01*
X344270Y555111D01*
X340909Y553719D01*
X337271Y553719D01*
X333910Y555111D01*
X331337Y557684D01*
X329945Y561045D01*
X329945Y564683D01*
X331337Y568044D01*
X333979Y570686D01*
X333988Y570691D01*
X334006Y570712D01*
X334017Y570724D01*
X334022Y570730D01*
X334055Y570757D01*
X334096Y570821D01*
X334145Y570880D01*
X334162Y570924D01*
X334188Y570963D01*
X334206Y571038D01*
X334234Y571110D01*
X334236Y571157D01*
X334248Y571202D01*
X334242Y571279D01*
X334245Y571355D01*
X334232Y571401D01*
X334229Y571447D01*
X334199Y571518D01*
X334177Y571592D01*
X334151Y571631D01*
X334132Y571674D01*
X334049Y571777D01*
X334038Y571794D01*
X334033Y571798D01*
X334028Y571805D01*
X332231Y573601D01*
X332231Y583191D01*
X332217Y583282D01*
X332209Y583372D01*
X332197Y583402D01*
X332192Y583434D01*
X332149Y583515D01*
X332113Y583599D01*
X332087Y583631D01*
X332076Y583652D01*
X332053Y583674D01*
X332008Y583730D01*
X284236Y631502D01*
X284162Y631555D01*
X284092Y631615D01*
X284062Y631627D01*
X284036Y631646D01*
X283949Y631673D01*
X283864Y631707D01*
X283823Y631711D01*
X283801Y631718D01*
X283769Y631717D01*
X283697Y631725D01*
X283612Y631725D01*
X283542Y631714D01*
X283470Y631712D01*
X283421Y631694D01*
X283370Y631686D01*
X283306Y631652D01*
X283239Y631627D01*
X283198Y631595D01*
X283152Y631570D01*
X283103Y631518D01*
X283047Y631474D01*
X283019Y631430D01*
X282983Y631392D01*
X282953Y631327D01*
X282914Y631267D01*
X282901Y631216D01*
X282879Y631169D01*
X282871Y631098D01*
X282854Y631028D01*
X282858Y630976D01*
X282852Y630925D01*
X282867Y630854D01*
X282873Y630783D01*
X282893Y630735D01*
X282904Y630684D01*
X282941Y630623D01*
X282969Y630557D01*
X283014Y630501D01*
X283031Y630473D01*
X283048Y630458D01*
X283074Y630426D01*
X287593Y625907D01*
X287593Y619173D01*
X282831Y614411D01*
X276097Y614411D01*
X275959Y614549D01*
X275943Y614560D01*
X275931Y614576D01*
X275843Y614632D01*
X275760Y614692D01*
X275741Y614698D01*
X275724Y614709D01*
X275623Y614734D01*
X275525Y614765D01*
X275505Y614764D01*
X275485Y614769D01*
X275382Y614761D01*
X275279Y614758D01*
X275260Y614752D01*
X275240Y614750D01*
X275145Y614710D01*
X275048Y614674D01*
X275032Y614661D01*
X275014Y614654D01*
X274883Y614549D01*
X255494Y595160D01*
X255441Y595086D01*
X255381Y595016D01*
X255369Y594986D01*
X255350Y594960D01*
X255323Y594873D01*
X255289Y594788D01*
X255285Y594747D01*
X255278Y594725D01*
X255279Y594693D01*
X255271Y594621D01*
X255271Y570015D01*
X255282Y569944D01*
X255284Y569873D01*
X255302Y569824D01*
X255310Y569772D01*
X255344Y569709D01*
X255369Y569642D01*
X255401Y569601D01*
X255426Y569555D01*
X255478Y569506D01*
X255522Y569450D01*
X255566Y569421D01*
X255604Y569386D01*
X255669Y569355D01*
X255729Y569317D01*
X255780Y569304D01*
X255827Y569282D01*
X255898Y569274D01*
X255968Y569257D01*
X256020Y569261D01*
X256071Y569255D01*
X256142Y569270D01*
X256213Y569276D01*
X256261Y569296D01*
X256312Y569307D01*
X256373Y569344D01*
X256439Y569372D01*
X256495Y569417D01*
X256523Y569433D01*
X256538Y569451D01*
X256570Y569477D01*
X257710Y570617D01*
X261071Y572009D01*
X264709Y572009D01*
X268070Y570617D01*
X270643Y568044D01*
X272035Y564683D01*
X272035Y561045D01*
X270643Y557684D01*
X268070Y555111D01*
X264709Y553719D01*
X261071Y553719D01*
X257710Y555111D01*
X256570Y556251D01*
X256512Y556293D01*
X256460Y556342D01*
X256413Y556364D01*
X256371Y556395D01*
X256302Y556416D01*
X256237Y556446D01*
X256185Y556452D01*
X256135Y556467D01*
X256064Y556465D01*
X255993Y556473D01*
X255942Y556462D01*
X255890Y556461D01*
X255822Y556436D01*
X255752Y556421D01*
X255707Y556394D01*
X255659Y556376D01*
X255603Y556331D01*
X255541Y556295D01*
X255507Y556255D01*
X255467Y556223D01*
X255428Y556162D01*
X255381Y556108D01*
X255362Y556059D01*
X255334Y556016D01*
X255316Y555946D01*
X255289Y555880D01*
X255281Y555808D01*
X255273Y555777D01*
X255275Y555754D01*
X255271Y555713D01*
X255271Y527881D01*
X253708Y526318D01*
X236380Y508990D01*
X236367Y508972D01*
X236349Y508957D01*
X236295Y508872D01*
X236237Y508791D01*
X236230Y508769D01*
X236218Y508749D01*
X236194Y508651D01*
X236164Y508556D01*
X236165Y508532D01*
X236160Y508510D01*
X236168Y508410D01*
X236171Y508310D01*
X236179Y508288D01*
X236181Y508265D01*
X236221Y508173D01*
X236255Y508079D01*
X236270Y508061D01*
X236279Y508040D01*
X236346Y507965D01*
X236409Y507887D01*
X236428Y507874D01*
X236444Y507857D01*
X236531Y507808D01*
X236602Y507763D01*
X236602Y500633D01*
X229472Y500633D01*
X229467Y500649D01*
X229454Y500668D01*
X229446Y500690D01*
X229384Y500768D01*
X229326Y500850D01*
X229307Y500864D01*
X229293Y500882D01*
X229208Y500936D01*
X229127Y500995D01*
X229105Y501002D01*
X229086Y501015D01*
X228988Y501039D01*
X228893Y501070D01*
X228869Y501069D01*
X228847Y501075D01*
X228747Y501067D01*
X228647Y501065D01*
X228625Y501058D01*
X228602Y501056D01*
X228510Y501017D01*
X228415Y500983D01*
X228397Y500969D01*
X228376Y500960D01*
X228245Y500855D01*
X195296Y467906D01*
X195243Y467832D01*
X195183Y467762D01*
X195171Y467732D01*
X195152Y467706D01*
X195125Y467619D01*
X195091Y467534D01*
X195087Y467493D01*
X195080Y467471D01*
X195081Y467439D01*
X195073Y467367D01*
X195073Y397201D01*
X195084Y397131D01*
X195086Y397059D01*
X195104Y397010D01*
X195112Y396959D01*
X195146Y396895D01*
X195171Y396828D01*
X195203Y396787D01*
X195228Y396741D01*
X195280Y396692D01*
X195324Y396636D01*
X195368Y396608D01*
X195406Y396572D01*
X195471Y396542D01*
X195531Y396503D01*
X195582Y396490D01*
X195629Y396468D01*
X195700Y396460D01*
X195770Y396443D01*
X195822Y396447D01*
X195873Y396441D01*
X195944Y396456D01*
X196015Y396462D01*
X196063Y396482D01*
X196114Y396493D01*
X196175Y396530D01*
X196241Y396558D01*
X196297Y396603D01*
X196325Y396620D01*
X196340Y396637D01*
X196372Y396663D01*
X196684Y396975D01*
X201080Y396975D01*
X202003Y396052D01*
X202019Y396040D01*
X202032Y396024D01*
X202119Y395968D01*
X202203Y395908D01*
X202222Y395902D01*
X202239Y395891D01*
X202339Y395866D01*
X202438Y395836D01*
X202458Y395836D01*
X202477Y395831D01*
X202580Y395839D01*
X202684Y395842D01*
X202703Y395849D01*
X202722Y395851D01*
X202817Y395891D01*
X202915Y395927D01*
X202931Y395939D01*
X202949Y395947D01*
X203080Y396052D01*
X280954Y473926D01*
X282517Y475489D01*
X292107Y475489D01*
X292198Y475503D01*
X292288Y475511D01*
X292318Y475523D01*
X292350Y475528D01*
X292431Y475571D01*
X292515Y475607D01*
X292547Y475633D01*
X292568Y475644D01*
X292590Y475667D01*
X292646Y475712D01*
X298361Y481427D01*
X298372Y481443D01*
X298388Y481455D01*
X298444Y481542D01*
X298504Y481626D01*
X298510Y481646D01*
X298521Y481662D01*
X298546Y481762D01*
X298577Y481862D01*
X298576Y481881D01*
X298581Y481901D01*
X298573Y482004D01*
X298570Y482107D01*
X298564Y482126D01*
X298562Y482146D01*
X298521Y482241D01*
X298486Y482338D01*
X298473Y482354D01*
X298466Y482372D01*
X298361Y482503D01*
X297826Y483038D01*
X297788Y483065D01*
X297757Y483099D01*
X297689Y483137D01*
X297626Y483182D01*
X297582Y483195D01*
X297542Y483218D01*
X297465Y483231D01*
X297391Y483254D01*
X297345Y483253D01*
X297300Y483261D01*
X297223Y483250D01*
X297145Y483248D01*
X297102Y483232D01*
X297056Y483225D01*
X296987Y483190D01*
X296914Y483163D01*
X296878Y483135D01*
X296837Y483114D01*
X296783Y483058D01*
X296722Y483010D01*
X296697Y482971D01*
X296665Y482938D01*
X296599Y482818D01*
X296589Y482803D01*
X296588Y482798D01*
X296584Y482791D01*
X296043Y481484D01*
X293470Y478911D01*
X290109Y477519D01*
X286471Y477519D01*
X283110Y478911D01*
X280537Y481484D01*
X279145Y484845D01*
X279145Y488483D01*
X280537Y491844D01*
X283110Y494417D01*
X286471Y495809D01*
X290109Y495809D01*
X293470Y494417D01*
X296043Y491844D01*
X296477Y490796D01*
X296528Y490713D01*
X296574Y490627D01*
X296593Y490609D01*
X296606Y490587D01*
X296681Y490525D01*
X296752Y490458D01*
X296776Y490447D01*
X296796Y490430D01*
X296887Y490395D01*
X296975Y490354D01*
X297001Y490351D01*
X297025Y490342D01*
X297123Y490338D01*
X297219Y490327D01*
X297245Y490332D01*
X297271Y490331D01*
X297365Y490358D01*
X297460Y490379D01*
X297482Y490393D01*
X297507Y490400D01*
X297587Y490455D01*
X297671Y490505D01*
X297688Y490525D01*
X297709Y490540D01*
X297768Y490618D01*
X297831Y490692D01*
X297841Y490717D01*
X297856Y490737D01*
X297886Y490830D01*
X297905Y490877D01*
X298480Y491452D01*
X298533Y491526D01*
X298593Y491596D01*
X298605Y491626D01*
X298624Y491652D01*
X298651Y491739D01*
X298685Y491824D01*
X298689Y491865D01*
X298696Y491887D01*
X298695Y491919D01*
X298703Y491991D01*
X298703Y493961D01*
X315272Y510530D01*
X315315Y510590D01*
X315358Y510635D01*
X315366Y510651D01*
X315385Y510674D01*
X315397Y510704D01*
X315416Y510730D01*
X315442Y510816D01*
X315462Y510858D01*
X315463Y510867D01*
X315477Y510902D01*
X315481Y510943D01*
X315488Y510965D01*
X315487Y510997D01*
X315495Y511069D01*
X315495Y515024D01*
X318604Y518133D01*
X323000Y518133D01*
X326109Y515024D01*
X326109Y510628D01*
X323000Y507519D01*
X319045Y507519D01*
X318954Y507505D01*
X318864Y507497D01*
X318834Y507485D01*
X318802Y507480D01*
X318721Y507437D01*
X318637Y507401D01*
X318605Y507375D01*
X318584Y507364D01*
X318562Y507341D01*
X318506Y507296D01*
X303500Y492290D01*
X303447Y492216D01*
X303387Y492146D01*
X303375Y492116D01*
X303356Y492090D01*
X303329Y492003D01*
X303295Y491918D01*
X303291Y491877D01*
X303284Y491855D01*
X303285Y491823D01*
X303277Y491751D01*
X303277Y489781D01*
X302738Y489242D01*
X302685Y489168D01*
X302625Y489098D01*
X302613Y489068D01*
X302594Y489042D01*
X302567Y488955D01*
X302533Y488870D01*
X302529Y488829D01*
X302522Y488807D01*
X302523Y488775D01*
X302515Y488703D01*
X302515Y485133D01*
X302529Y485043D01*
X302537Y484952D01*
X302549Y484922D01*
X302554Y484890D01*
X302597Y484809D01*
X302633Y484725D01*
X302659Y484693D01*
X302670Y484672D01*
X302693Y484650D01*
X302738Y484594D01*
X303295Y484037D01*
X303374Y483980D01*
X303449Y483918D01*
X303473Y483909D01*
X303494Y483894D01*
X303587Y483865D01*
X303678Y483830D01*
X303704Y483829D01*
X303729Y483821D01*
X303827Y483824D01*
X303924Y483820D01*
X303949Y483827D01*
X303975Y483828D01*
X304067Y483861D01*
X304160Y483888D01*
X304182Y483903D01*
X304206Y483912D01*
X304282Y483973D01*
X304362Y484029D01*
X304378Y484050D01*
X304398Y484066D01*
X304451Y484148D01*
X304509Y484226D01*
X304517Y484251D01*
X304531Y484273D01*
X304555Y484367D01*
X304585Y484460D01*
X304585Y484486D01*
X304591Y484511D01*
X304584Y484609D01*
X304583Y484706D01*
X304574Y484737D01*
X304572Y484757D01*
X304559Y484787D01*
X304545Y484836D01*
X304545Y488483D01*
X305937Y491844D01*
X308510Y494417D01*
X311871Y495809D01*
X315509Y495809D01*
X318870Y494417D01*
X321443Y491844D01*
X322835Y488483D01*
X322835Y484845D01*
X321443Y481484D01*
X318870Y478911D01*
X316701Y478013D01*
X316601Y477951D01*
X316501Y477891D01*
X316497Y477887D01*
X316492Y477883D01*
X316417Y477793D01*
X316341Y477704D01*
X316339Y477699D01*
X316335Y477694D01*
X316293Y477584D01*
X316249Y477476D01*
X316248Y477469D01*
X316247Y477464D01*
X316246Y477446D01*
X316231Y477310D01*
X316231Y388359D01*
X316245Y388268D01*
X316253Y388178D01*
X316265Y388148D01*
X316270Y388116D01*
X316313Y388035D01*
X316349Y387951D01*
X316375Y387919D01*
X316386Y387898D01*
X316409Y387876D01*
X316454Y387820D01*
X343663Y360611D01*
X343663Y350335D01*
X323435Y330108D01*
X323367Y330013D01*
X323298Y329919D01*
X323296Y329913D01*
X323292Y329908D01*
X323258Y329796D01*
X323221Y329685D01*
X323221Y329679D01*
X323220Y329673D01*
X323223Y329556D01*
X323224Y329439D01*
X323226Y329432D01*
X323226Y329427D01*
X323232Y329409D01*
X323270Y329278D01*
X323724Y328184D01*
X323724Y324596D01*
X322351Y321282D01*
X319814Y318745D01*
X316500Y317372D01*
X312912Y317372D01*
X310740Y318272D01*
X310627Y318299D01*
X310513Y318327D01*
X310507Y318327D01*
X310501Y318328D01*
X310384Y318317D01*
X310268Y318308D01*
X310262Y318306D01*
X310256Y318305D01*
X310149Y318257D01*
X310042Y318212D01*
X310036Y318207D01*
X310031Y318205D01*
X310018Y318192D01*
X309911Y318107D01*
X305747Y313943D01*
X223843Y313943D01*
X219494Y318292D01*
X219420Y318345D01*
X219350Y318405D01*
X219320Y318417D01*
X219294Y318436D01*
X219207Y318463D01*
X219122Y318497D01*
X219081Y318501D01*
X219059Y318508D01*
X219027Y318507D01*
X218955Y318515D01*
X217084Y318515D01*
X217064Y318512D01*
X217045Y318514D01*
X216943Y318492D01*
X216841Y318476D01*
X216824Y318466D01*
X216804Y318462D01*
X216715Y318409D01*
X216624Y318360D01*
X216610Y318346D01*
X216593Y318336D01*
X216526Y318257D01*
X216454Y318182D01*
X216446Y318164D01*
X216433Y318149D01*
X216394Y318053D01*
X216351Y317959D01*
X216349Y317939D01*
X216342Y317922D01*
X211561Y313141D01*
X208566Y313141D01*
X208496Y313130D01*
X208424Y313128D01*
X208375Y313110D01*
X208324Y313102D01*
X208260Y313068D01*
X208193Y313043D01*
X208152Y313011D01*
X208106Y312986D01*
X208057Y312934D01*
X208001Y312890D01*
X207973Y312846D01*
X207937Y312808D01*
X207907Y312743D01*
X207868Y312683D01*
X207855Y312632D01*
X207833Y312585D01*
X207825Y312514D01*
X207808Y312444D01*
X207812Y312392D01*
X207806Y312341D01*
X207821Y312270D01*
X207827Y312199D01*
X207847Y312151D01*
X207858Y312100D01*
X207895Y312039D01*
X207923Y311973D01*
X207968Y311917D01*
X207985Y311889D01*
X207987Y311887D01*
X207988Y311886D01*
X208004Y311873D01*
X208028Y311842D01*
X256756Y263114D01*
X256830Y263061D01*
X256900Y263001D01*
X256930Y262989D01*
X256956Y262970D01*
X257043Y262943D01*
X257128Y262909D01*
X257169Y262905D01*
X257191Y262898D01*
X257223Y262899D01*
X257295Y262891D01*
X319463Y262891D01*
X326899Y255455D01*
X326899Y245179D01*
X292793Y211073D01*
X285646Y211073D01*
X285575Y211062D01*
X285503Y211060D01*
X285454Y211042D01*
X285403Y211034D01*
X285340Y211000D01*
X285272Y210975D01*
X285232Y210943D01*
X285186Y210918D01*
X285136Y210866D01*
X285080Y210822D01*
X285052Y210778D01*
X285016Y210740D01*
X284986Y210675D01*
X284947Y210615D01*
X284934Y210564D01*
X284913Y210517D01*
X284905Y210446D01*
X284887Y210376D01*
X284891Y210324D01*
X284885Y210273D01*
X284901Y210202D01*
X284906Y210131D01*
X284927Y210083D01*
X284938Y210032D01*
X284974Y209971D01*
X285003Y209905D01*
X285047Y209849D01*
X285064Y209821D01*
X285082Y209806D01*
X285107Y209774D01*
X287674Y207207D01*
X289434Y202959D01*
X289434Y198361D01*
X287674Y194113D01*
X284423Y190862D01*
X280175Y189102D01*
X275577Y189102D01*
X271329Y190862D01*
X268078Y194113D01*
X266318Y198361D01*
X266318Y202959D01*
X268078Y207207D01*
X270645Y209774D01*
X270686Y209832D01*
X270736Y209884D01*
X270758Y209931D01*
X270788Y209973D01*
X270809Y210042D01*
X270839Y210107D01*
X270845Y210159D01*
X270861Y210209D01*
X270859Y210280D01*
X270867Y210351D01*
X270856Y210402D01*
X270854Y210454D01*
X270830Y210522D01*
X270814Y210592D01*
X270788Y210637D01*
X270770Y210685D01*
X270725Y210741D01*
X270688Y210803D01*
X270649Y210837D01*
X270616Y210877D01*
X270556Y210916D01*
X270501Y210963D01*
X270453Y210982D01*
X270409Y211010D01*
X270340Y211028D01*
X270273Y211055D01*
X270202Y211063D01*
X270171Y211071D01*
X270147Y211069D01*
X270106Y211073D01*
X192525Y211073D01*
X192434Y211059D01*
X192344Y211051D01*
X192314Y211039D01*
X192282Y211034D01*
X192201Y210991D01*
X192117Y210955D01*
X192085Y210929D01*
X192064Y210918D01*
X192042Y210895D01*
X191986Y210850D01*
X118414Y137278D01*
X118411Y137274D01*
X118408Y137272D01*
X118339Y137173D01*
X118270Y137078D01*
X118269Y137074D01*
X118267Y137071D01*
X118232Y136956D01*
X118198Y136843D01*
X118198Y136839D01*
X118197Y136835D01*
X118201Y136717D01*
X118204Y136597D01*
X118205Y136593D01*
X118206Y136589D01*
X118247Y136479D01*
X118289Y136366D01*
X118291Y136363D01*
X118292Y136359D01*
X118367Y136268D01*
X118442Y136174D01*
X118446Y136172D01*
X118448Y136169D01*
X118548Y136106D01*
X118649Y136041D01*
X118653Y136040D01*
X118656Y136038D01*
X118772Y136010D01*
X118888Y135981D01*
X118892Y135981D01*
X118896Y135980D01*
X119015Y135991D01*
X119133Y136000D01*
X119137Y136002D01*
X119141Y136002D01*
X119297Y136061D01*
X120395Y136621D01*
X122278Y137232D01*
X123699Y137457D01*
X123699Y126491D01*
X112733Y126491D01*
X112958Y127912D01*
X113569Y129795D01*
X114129Y130893D01*
X114130Y130896D01*
X114132Y130900D01*
X114157Y130979D01*
X114164Y130994D01*
X114165Y131007D01*
X114167Y131013D01*
X114204Y131127D01*
X114204Y131131D01*
X114205Y131135D01*
X114202Y131254D01*
X114200Y131373D01*
X114198Y131377D01*
X114198Y131381D01*
X114157Y131493D01*
X114118Y131605D01*
X114115Y131608D01*
X114114Y131612D01*
X114040Y131704D01*
X113966Y131798D01*
X113963Y131800D01*
X113960Y131804D01*
X113860Y131868D01*
X113761Y131933D01*
X113757Y131934D01*
X113753Y131937D01*
X113638Y131966D01*
X113523Y131996D01*
X113519Y131996D01*
X113515Y131997D01*
X113397Y131987D01*
X113277Y131979D01*
X113274Y131978D01*
X113270Y131978D01*
X113161Y131931D01*
X113050Y131885D01*
X113047Y131883D01*
X113043Y131881D01*
X112912Y131776D01*
X105380Y124244D01*
X103817Y122681D01*
X87001Y122681D01*
X86887Y122662D01*
X86771Y122645D01*
X86765Y122643D01*
X86759Y122642D01*
X86656Y122587D01*
X86551Y122534D01*
X86547Y122529D01*
X86541Y122526D01*
X86461Y122442D01*
X86379Y122358D01*
X86375Y122352D01*
X86372Y122348D01*
X86364Y122331D01*
X86298Y122211D01*
X84728Y118421D01*
X81477Y115170D01*
X77229Y113410D01*
X72631Y113410D01*
X68383Y115170D01*
X65132Y118421D01*
X63372Y122669D01*
X63372Y127267D01*
X65132Y131515D01*
X67953Y134336D01*
X67994Y134394D01*
X68044Y134446D01*
X68066Y134493D01*
X68096Y134535D01*
X68117Y134604D01*
X68147Y134669D01*
X68153Y134721D01*
X68169Y134771D01*
X68167Y134842D01*
X68175Y134913D01*
X68164Y134964D01*
X68162Y135016D01*
X68138Y135084D01*
X68122Y135154D01*
X68096Y135199D01*
X68078Y135247D01*
X68033Y135303D01*
X67996Y135365D01*
X67957Y135399D01*
X67924Y135439D01*
X67864Y135478D01*
X67809Y135525D01*
X67761Y135544D01*
X67717Y135572D01*
X67648Y135590D01*
X67581Y135617D01*
X67510Y135625D01*
X67479Y135633D01*
X67455Y135631D01*
X67414Y135635D01*
X38601Y135635D01*
X38510Y135621D01*
X38420Y135613D01*
X38390Y135601D01*
X38358Y135596D01*
X38277Y135553D01*
X38193Y135517D01*
X38161Y135491D01*
X38140Y135480D01*
X38118Y135457D01*
X38062Y135412D01*
X34537Y131887D01*
X34469Y131792D01*
X34399Y131698D01*
X34397Y131692D01*
X34393Y131687D01*
X34359Y131576D01*
X34323Y131464D01*
X34323Y131458D01*
X34321Y131452D01*
X34324Y131335D01*
X34325Y131218D01*
X34327Y131211D01*
X34327Y131206D01*
X34334Y131189D01*
X34372Y131057D01*
X35942Y127267D01*
X35942Y122669D01*
X34182Y118421D01*
X30931Y115170D01*
X26683Y113410D01*
X22085Y113410D01*
X17837Y115170D01*
X14586Y118421D01*
X12826Y122669D01*
X12826Y127267D01*
X14586Y131515D01*
X17837Y134766D01*
X22085Y136526D01*
X26683Y136526D01*
X30473Y134956D01*
X30587Y134929D01*
X30700Y134901D01*
X30707Y134901D01*
X30713Y134900D01*
X30829Y134911D01*
X30946Y134920D01*
X30951Y134922D01*
X30958Y134923D01*
X31065Y134971D01*
X31172Y135016D01*
X31178Y135021D01*
X31182Y135023D01*
X31196Y135035D01*
X31303Y135121D01*
X36391Y140209D01*
X78747Y140209D01*
X78838Y140223D01*
X78928Y140231D01*
X78958Y140243D01*
X78990Y140248D01*
X79071Y140291D01*
X79155Y140327D01*
X79187Y140353D01*
X79208Y140364D01*
X79230Y140387D01*
X79286Y140432D01*
X126657Y187803D01*
X126699Y187861D01*
X126748Y187913D01*
X126770Y187960D01*
X126800Y188002D01*
X126821Y188071D01*
X126852Y188136D01*
X126857Y188188D01*
X126873Y188238D01*
X126871Y188309D01*
X126879Y188380D01*
X126868Y188431D01*
X126866Y188483D01*
X126842Y188551D01*
X126827Y188621D01*
X126800Y188666D01*
X126782Y188714D01*
X126737Y188770D01*
X126700Y188832D01*
X126661Y188866D01*
X126628Y188906D01*
X126568Y188945D01*
X126513Y188992D01*
X126465Y189011D01*
X126421Y189039D01*
X126352Y189057D01*
X126285Y189084D01*
X126214Y189092D01*
X126183Y189100D01*
X126159Y189098D01*
X126119Y189102D01*
X122923Y189102D01*
X118675Y190862D01*
X115424Y194113D01*
X113664Y198361D01*
X113664Y202959D01*
X115424Y207207D01*
X118675Y210458D01*
X122923Y212218D01*
X127521Y212218D01*
X131769Y210458D01*
X135020Y207207D01*
X136780Y202959D01*
X136780Y199763D01*
X136791Y199693D01*
X136793Y199621D01*
X136811Y199572D01*
X136819Y199521D01*
X136853Y199457D01*
X136878Y199390D01*
X136910Y199349D01*
X136935Y199303D01*
X136987Y199254D01*
X137031Y199198D01*
X137075Y199170D01*
X137113Y199134D01*
X137178Y199104D01*
X137238Y199065D01*
X137289Y199052D01*
X137336Y199030D01*
X137407Y199022D01*
X137477Y199005D01*
X137529Y199009D01*
X137580Y199003D01*
X137651Y199018D01*
X137722Y199024D01*
X137770Y199044D01*
X137821Y199055D01*
X137882Y199092D01*
X137948Y199120D01*
X138004Y199165D01*
X138032Y199182D01*
X138047Y199199D01*
X138079Y199225D01*
X157549Y218695D01*
X268485Y218695D01*
X268576Y218709D01*
X268666Y218717D01*
X268696Y218729D01*
X268728Y218734D01*
X268809Y218777D01*
X268893Y218813D01*
X268925Y218839D01*
X268946Y218850D01*
X268968Y218873D01*
X269024Y218918D01*
X289979Y239873D01*
X290021Y239931D01*
X290070Y239983D01*
X290092Y240030D01*
X290122Y240072D01*
X290143Y240141D01*
X290174Y240206D01*
X290179Y240258D01*
X290195Y240308D01*
X290193Y240379D01*
X290201Y240450D01*
X290190Y240501D01*
X290188Y240553D01*
X290164Y240621D01*
X290149Y240691D01*
X290122Y240736D01*
X290104Y240784D01*
X290059Y240840D01*
X290022Y240902D01*
X289983Y240936D01*
X289950Y240976D01*
X289890Y241015D01*
X289835Y241062D01*
X289787Y241081D01*
X289743Y241109D01*
X289674Y241127D01*
X289607Y241154D01*
X289536Y241162D01*
X289505Y241170D01*
X289481Y241168D01*
X289441Y241172D01*
X287512Y241172D01*
X284198Y242545D01*
X281661Y245082D01*
X280792Y247179D01*
X280730Y247279D01*
X280671Y247379D01*
X280666Y247383D01*
X280663Y247388D01*
X280572Y247463D01*
X280484Y247539D01*
X280478Y247541D01*
X280473Y247545D01*
X280365Y247587D01*
X280256Y247631D01*
X280248Y247632D01*
X280244Y247633D01*
X280225Y247634D01*
X280089Y247649D01*
X279393Y247649D01*
X279302Y247635D01*
X279212Y247627D01*
X279182Y247615D01*
X279150Y247610D01*
X279069Y247567D01*
X278985Y247531D01*
X278953Y247505D01*
X278932Y247494D01*
X278910Y247471D01*
X278854Y247426D01*
X264599Y233171D01*
X242905Y233171D01*
X242790Y233152D01*
X242674Y233135D01*
X242668Y233133D01*
X242662Y233132D01*
X242559Y233077D01*
X242455Y233024D01*
X242450Y233019D01*
X242445Y233016D01*
X242365Y232932D01*
X242282Y232848D01*
X242279Y232842D01*
X242275Y232838D01*
X242268Y232821D01*
X242202Y232701D01*
X240809Y229338D01*
X238022Y226551D01*
X234381Y225043D01*
X230439Y225043D01*
X226798Y226551D01*
X224011Y229338D01*
X222618Y232701D01*
X222557Y232801D01*
X222497Y232901D01*
X222492Y232905D01*
X222489Y232910D01*
X222399Y232985D01*
X222310Y233061D01*
X222304Y233063D01*
X222299Y233067D01*
X222191Y233109D01*
X222082Y233153D01*
X222074Y233154D01*
X222070Y233155D01*
X222051Y233156D01*
X221915Y233171D01*
X220033Y233171D01*
X179870Y273334D01*
X178307Y274897D01*
X178307Y484295D01*
X178296Y484366D01*
X178294Y484438D01*
X178276Y484487D01*
X178268Y484538D01*
X178234Y484601D01*
X178209Y484669D01*
X178177Y484709D01*
X178152Y484755D01*
X178100Y484805D01*
X178056Y484861D01*
X178012Y484889D01*
X177974Y484925D01*
X177909Y484955D01*
X177849Y484994D01*
X177798Y485006D01*
X177751Y485028D01*
X177680Y485036D01*
X177610Y485054D01*
X177558Y485050D01*
X177507Y485056D01*
X177436Y485040D01*
X177365Y485035D01*
X177317Y485014D01*
X177266Y485003D01*
X177205Y484966D01*
X177139Y484938D01*
X177083Y484894D01*
X177055Y484877D01*
X177040Y484859D01*
X177008Y484834D01*
X175027Y482853D01*
X172973Y482853D01*
X172973Y490728D01*
X172970Y490748D01*
X172972Y490767D01*
X172950Y490869D01*
X172933Y490971D01*
X172924Y490988D01*
X172920Y491008D01*
X172867Y491097D01*
X172818Y491188D01*
X172804Y491202D01*
X172794Y491219D01*
X172715Y491286D01*
X172640Y491357D01*
X172622Y491366D01*
X172607Y491379D01*
X172511Y491417D01*
X172417Y491461D01*
X172397Y491463D01*
X172379Y491471D01*
X172212Y491489D01*
X170688Y491489D01*
X170668Y491486D01*
X170649Y491488D01*
X170547Y491466D01*
X170445Y491449D01*
X170428Y491440D01*
X170408Y491436D01*
X170319Y491383D01*
X170228Y491334D01*
X170214Y491320D01*
X170197Y491310D01*
X170130Y491231D01*
X170059Y491156D01*
X170050Y491138D01*
X170037Y491123D01*
X169998Y491027D01*
X169955Y490933D01*
X169953Y490913D01*
X169945Y490895D01*
X169927Y490728D01*
X169927Y482879D01*
X169929Y482866D01*
X169928Y482858D01*
X169938Y482813D01*
X169942Y482788D01*
X169949Y482698D01*
X169961Y482668D01*
X169967Y482636D01*
X170009Y482555D01*
X170045Y482471D01*
X170071Y482439D01*
X170082Y482418D01*
X170105Y482396D01*
X170150Y482340D01*
X171989Y480501D01*
X174812Y473685D01*
X174812Y247819D01*
X171989Y241004D01*
X150120Y219134D01*
X143304Y216311D01*
X117050Y216311D01*
X116959Y216296D01*
X116868Y216289D01*
X116839Y216277D01*
X116807Y216272D01*
X116726Y216229D01*
X116642Y216193D01*
X116610Y216167D01*
X116590Y216156D01*
X116568Y216133D01*
X116511Y216088D01*
X99664Y199199D01*
X99611Y199126D01*
X99552Y199057D01*
X99540Y199026D01*
X99521Y198999D01*
X99494Y198913D01*
X99460Y198828D01*
X99456Y198787D01*
X99449Y198764D01*
X99450Y198732D01*
X99442Y198662D01*
X99442Y195784D01*
X95710Y186775D01*
X88815Y179880D01*
X79806Y176148D01*
X70054Y176148D01*
X61045Y179880D01*
X54150Y186775D01*
X50418Y195784D01*
X50418Y205536D01*
X54150Y214545D01*
X61045Y221440D01*
X70054Y225172D01*
X72874Y225172D01*
X72965Y225187D01*
X73056Y225194D01*
X73086Y225206D01*
X73117Y225211D01*
X73198Y225254D01*
X73283Y225290D01*
X73314Y225316D01*
X73335Y225327D01*
X73357Y225350D01*
X73413Y225395D01*
X93209Y245240D01*
X93226Y245263D01*
X95920Y247958D01*
X95921Y247958D01*
X98525Y250569D01*
X101943Y251985D01*
X102616Y252265D01*
X102655Y252289D01*
X102698Y252304D01*
X102759Y252353D01*
X102825Y252395D01*
X102854Y252430D01*
X102890Y252458D01*
X102932Y252524D01*
X102982Y252584D01*
X102998Y252627D01*
X103023Y252665D01*
X103042Y252741D01*
X103070Y252814D01*
X103072Y252859D01*
X103083Y252903D01*
X103077Y252981D01*
X103080Y253060D01*
X103067Y253103D01*
X103063Y253149D01*
X103033Y253221D01*
X103011Y253296D01*
X102985Y253333D01*
X102967Y253375D01*
X102881Y253483D01*
X102870Y253498D01*
X102867Y253501D01*
X102862Y253506D01*
X98465Y257903D01*
X98465Y264637D01*
X103227Y269399D01*
X103632Y269399D01*
X103652Y269402D01*
X103671Y269400D01*
X103773Y269422D01*
X103875Y269438D01*
X103892Y269448D01*
X103912Y269452D01*
X104001Y269505D01*
X104092Y269554D01*
X104106Y269568D01*
X104123Y269578D01*
X104190Y269657D01*
X104262Y269732D01*
X104270Y269750D01*
X104283Y269765D01*
X104322Y269861D01*
X104365Y269955D01*
X104367Y269975D01*
X104375Y269993D01*
X104393Y270160D01*
X104393Y279077D01*
X106142Y280826D01*
X106184Y280884D01*
X106233Y280936D01*
X106255Y280983D01*
X106285Y281025D01*
X106306Y281094D01*
X106337Y281159D01*
X106342Y281211D01*
X106358Y281261D01*
X106356Y281332D01*
X106364Y281403D01*
X106353Y281454D01*
X106351Y281506D01*
X106327Y281574D01*
X106312Y281644D01*
X106285Y281689D01*
X106267Y281737D01*
X106222Y281793D01*
X106185Y281855D01*
X106146Y281889D01*
X106113Y281929D01*
X106053Y281968D01*
X105998Y282015D01*
X105950Y282034D01*
X105906Y282062D01*
X105837Y282080D01*
X105770Y282107D01*
X105699Y282115D01*
X105668Y282123D01*
X105644Y282121D01*
X105604Y282125D01*
X102806Y282125D01*
X97449Y287482D01*
X97449Y289747D01*
X105832Y289747D01*
X105852Y289750D01*
X105871Y289748D01*
X105973Y289770D01*
X106075Y289787D01*
X106092Y289796D01*
X106112Y289800D01*
X106201Y289853D01*
X106292Y289902D01*
X106306Y289916D01*
X106323Y289926D01*
X106390Y290005D01*
X106461Y290080D01*
X106470Y290098D01*
X106483Y290113D01*
X106521Y290209D01*
X106565Y290303D01*
X106567Y290323D01*
X106575Y290341D01*
X106593Y290508D01*
X106593Y291271D01*
X107356Y291271D01*
X107376Y291274D01*
X107395Y291272D01*
X107497Y291294D01*
X107599Y291311D01*
X107616Y291320D01*
X107636Y291324D01*
X107725Y291377D01*
X107816Y291426D01*
X107830Y291440D01*
X107847Y291450D01*
X107914Y291529D01*
X107985Y291604D01*
X107994Y291622D01*
X108007Y291637D01*
X108046Y291733D01*
X108089Y291827D01*
X108091Y291847D01*
X108099Y291865D01*
X108117Y292032D01*
X108117Y300415D01*
X110382Y300415D01*
X112238Y298559D01*
X112296Y298517D01*
X112348Y298468D01*
X112395Y298446D01*
X112437Y298415D01*
X112506Y298394D01*
X112571Y298364D01*
X112623Y298358D01*
X112673Y298343D01*
X112744Y298345D01*
X112815Y298337D01*
X112866Y298348D01*
X112918Y298349D01*
X112986Y298374D01*
X113056Y298389D01*
X113101Y298416D01*
X113149Y298434D01*
X113205Y298479D01*
X113267Y298515D01*
X113301Y298555D01*
X113341Y298587D01*
X113380Y298648D01*
X113427Y298702D01*
X113446Y298751D01*
X113474Y298794D01*
X113492Y298864D01*
X113519Y298930D01*
X113527Y299002D01*
X113535Y299033D01*
X113533Y299056D01*
X113537Y299097D01*
X113537Y314880D01*
X113526Y314950D01*
X113524Y315022D01*
X113506Y315071D01*
X113498Y315122D01*
X113464Y315186D01*
X113439Y315253D01*
X113407Y315294D01*
X113382Y315340D01*
X113330Y315389D01*
X113286Y315445D01*
X113242Y315473D01*
X113204Y315509D01*
X113139Y315539D01*
X113079Y315578D01*
X113028Y315591D01*
X112981Y315613D01*
X112910Y315621D01*
X112840Y315638D01*
X112788Y315634D01*
X112737Y315640D01*
X112666Y315625D01*
X112595Y315619D01*
X112547Y315599D01*
X112496Y315588D01*
X112435Y315551D01*
X112369Y315523D01*
X112313Y315478D01*
X112285Y315461D01*
X112270Y315444D01*
X112238Y315418D01*
X109961Y313141D01*
X103227Y313141D01*
X98465Y317903D01*
X98465Y324637D01*
X103227Y329399D01*
X109961Y329399D01*
X112238Y327122D01*
X112296Y327080D01*
X112348Y327031D01*
X112395Y327009D01*
X112437Y326978D01*
X112506Y326957D01*
X112571Y326927D01*
X112623Y326921D01*
X112673Y326906D01*
X112744Y326908D01*
X112815Y326900D01*
X112866Y326911D01*
X112918Y326912D01*
X112986Y326937D01*
X113056Y326952D01*
X113101Y326979D01*
X113149Y326997D01*
X113205Y327042D01*
X113267Y327079D01*
X113301Y327118D01*
X113341Y327151D01*
X113380Y327211D01*
X113427Y327265D01*
X113446Y327314D01*
X113474Y327358D01*
X113492Y327427D01*
X113519Y327494D01*
X113527Y327565D01*
X113535Y327596D01*
X113533Y327619D01*
X113537Y327660D01*
X113537Y364497D01*
X113523Y364588D01*
X113515Y364678D01*
X113503Y364708D01*
X113498Y364740D01*
X113455Y364821D01*
X113419Y364905D01*
X113393Y364937D01*
X113382Y364958D01*
X113359Y364980D01*
X113314Y365036D01*
X111251Y367099D01*
X111251Y483108D01*
X111248Y483128D01*
X111250Y483147D01*
X111228Y483249D01*
X111212Y483351D01*
X111202Y483368D01*
X111198Y483388D01*
X111145Y483477D01*
X111096Y483568D01*
X111082Y483582D01*
X111072Y483599D01*
X110993Y483666D01*
X110918Y483738D01*
X110900Y483746D01*
X110885Y483759D01*
X110789Y483798D01*
X110695Y483841D01*
X110675Y483843D01*
X110657Y483851D01*
X110490Y483869D01*
X109873Y483869D01*
X105409Y488333D01*
X105409Y494647D01*
X109873Y499111D01*
X116187Y499111D01*
X120651Y494647D01*
X120651Y488333D01*
X116048Y483730D01*
X115995Y483656D01*
X115935Y483587D01*
X115923Y483557D01*
X115904Y483531D01*
X115877Y483444D01*
X115843Y483359D01*
X115839Y483318D01*
X115832Y483296D01*
X115833Y483263D01*
X115825Y483192D01*
X115825Y450150D01*
X115827Y450136D01*
X115826Y450124D01*
X115839Y450063D01*
X115840Y450054D01*
X115850Y449957D01*
X115860Y449933D01*
X115864Y449907D01*
X115910Y449821D01*
X115950Y449732D01*
X115967Y449713D01*
X115980Y449690D01*
X116050Y449623D01*
X116116Y449551D01*
X116139Y449539D01*
X116158Y449521D01*
X116246Y449480D01*
X116332Y449433D01*
X116357Y449428D01*
X116381Y449417D01*
X116478Y449406D01*
X116574Y449389D01*
X116600Y449393D01*
X116625Y449390D01*
X116721Y449411D01*
X116817Y449425D01*
X116840Y449437D01*
X116866Y449442D01*
X116949Y449492D01*
X117036Y449536D01*
X117055Y449555D01*
X117077Y449568D01*
X117140Y449642D01*
X117208Y449712D01*
X117224Y449740D01*
X117237Y449755D01*
X117249Y449786D01*
X117289Y449859D01*
X118233Y452137D01*
X121395Y455299D01*
X125526Y457010D01*
X129998Y457010D01*
X134129Y455299D01*
X136427Y453001D01*
X136485Y452959D01*
X136537Y452910D01*
X136585Y452888D01*
X136627Y452857D01*
X136695Y452836D01*
X136761Y452806D01*
X136812Y452800D01*
X136862Y452785D01*
X136934Y452787D01*
X137005Y452779D01*
X137056Y452790D01*
X137108Y452791D01*
X137175Y452816D01*
X137245Y452831D01*
X137290Y452858D01*
X137339Y452876D01*
X137395Y452921D01*
X137456Y452957D01*
X137490Y452997D01*
X137531Y453029D01*
X137570Y453090D01*
X137616Y453144D01*
X137636Y453193D01*
X137664Y453236D01*
X137681Y453306D01*
X137708Y453372D01*
X137716Y453444D01*
X137724Y453475D01*
X137722Y453498D01*
X137727Y453539D01*
X137727Y462001D01*
X137712Y462091D01*
X137705Y462182D01*
X137692Y462212D01*
X137687Y462244D01*
X137644Y462325D01*
X137609Y462408D01*
X137583Y462441D01*
X137572Y462461D01*
X137549Y462483D01*
X137504Y462539D01*
X129642Y470401D01*
X126819Y477216D01*
X126819Y544959D01*
X126808Y545029D01*
X126806Y545101D01*
X126788Y545150D01*
X126780Y545201D01*
X126746Y545265D01*
X126721Y545332D01*
X126689Y545373D01*
X126664Y545419D01*
X126612Y545468D01*
X126568Y545524D01*
X126524Y545552D01*
X126486Y545588D01*
X126421Y545618D01*
X126361Y545657D01*
X126310Y545670D01*
X126263Y545692D01*
X126192Y545700D01*
X126122Y545717D01*
X126070Y545713D01*
X126019Y545719D01*
X125948Y545704D01*
X125877Y545698D01*
X125829Y545678D01*
X125778Y545667D01*
X125717Y545630D01*
X125651Y545602D01*
X125595Y545557D01*
X125567Y545540D01*
X125552Y545523D01*
X125520Y545497D01*
X124880Y544857D01*
X120484Y544857D01*
X117687Y547654D01*
X117613Y547707D01*
X117543Y547767D01*
X117513Y547779D01*
X117487Y547798D01*
X117400Y547825D01*
X117315Y547859D01*
X117274Y547863D01*
X117252Y547870D01*
X117220Y547869D01*
X117149Y547877D01*
X96095Y547877D01*
X96024Y547866D01*
X95952Y547864D01*
X95903Y547846D01*
X95852Y547838D01*
X95789Y547804D01*
X95721Y547779D01*
X95681Y547747D01*
X95635Y547722D01*
X95585Y547670D01*
X95529Y547626D01*
X95501Y547582D01*
X95465Y547544D01*
X95435Y547479D01*
X95396Y547419D01*
X95384Y547368D01*
X95362Y547321D01*
X95354Y547250D01*
X95336Y547180D01*
X95340Y547128D01*
X95334Y547077D01*
X95350Y547006D01*
X95355Y546935D01*
X95376Y546887D01*
X95387Y546836D01*
X95424Y546775D01*
X95452Y546709D01*
X95496Y546653D01*
X95513Y546625D01*
X95531Y546610D01*
X95556Y546578D01*
X97537Y544597D01*
X97537Y542543D01*
X89662Y542543D01*
X89642Y542540D01*
X89623Y542542D01*
X89521Y542520D01*
X89419Y542503D01*
X89402Y542494D01*
X89382Y542490D01*
X89293Y542437D01*
X89202Y542388D01*
X89188Y542374D01*
X89171Y542364D01*
X89104Y542285D01*
X89033Y542210D01*
X89024Y542192D01*
X89011Y542177D01*
X88973Y542081D01*
X88929Y541987D01*
X88927Y541967D01*
X88919Y541949D01*
X88901Y541782D01*
X88901Y541019D01*
X88899Y541019D01*
X88899Y541782D01*
X88896Y541802D01*
X88898Y541821D01*
X88876Y541923D01*
X88859Y542025D01*
X88850Y542042D01*
X88846Y542062D01*
X88793Y542151D01*
X88744Y542242D01*
X88730Y542256D01*
X88720Y542273D01*
X88641Y542340D01*
X88566Y542411D01*
X88548Y542420D01*
X88533Y542433D01*
X88437Y542472D01*
X88343Y542515D01*
X88323Y542517D01*
X88305Y542525D01*
X88138Y542543D01*
X80263Y542543D01*
X80263Y544597D01*
X83432Y547766D01*
X83443Y547782D01*
X83459Y547794D01*
X83515Y547882D01*
X83575Y547966D01*
X83581Y547985D01*
X83592Y548001D01*
X83617Y548102D01*
X83648Y548201D01*
X83647Y548221D01*
X83652Y548240D01*
X83644Y548343D01*
X83641Y548447D01*
X83634Y548465D01*
X83633Y548485D01*
X83592Y548580D01*
X83557Y548678D01*
X83544Y548693D01*
X83536Y548711D01*
X83432Y548842D01*
X77723Y554551D01*
X77723Y567113D01*
X91978Y581368D01*
X92031Y581442D01*
X92091Y581512D01*
X92103Y581542D01*
X92122Y581568D01*
X92149Y581655D01*
X92183Y581740D01*
X92187Y581781D01*
X92194Y581803D01*
X92193Y581835D01*
X92201Y581907D01*
X92201Y585216D01*
X92182Y585331D01*
X92165Y585447D01*
X92163Y585453D01*
X92162Y585459D01*
X92107Y585561D01*
X92054Y585666D01*
X92049Y585671D01*
X92046Y585676D01*
X91962Y585756D01*
X91878Y585838D01*
X91872Y585842D01*
X91868Y585845D01*
X91851Y585853D01*
X91731Y585919D01*
X90070Y586607D01*
X87497Y589180D01*
X86105Y592541D01*
X86105Y607575D01*
X86091Y607666D01*
X86083Y607756D01*
X86071Y607786D01*
X86066Y607818D01*
X86023Y607899D01*
X85987Y607983D01*
X85961Y608015D01*
X85950Y608036D01*
X85927Y608058D01*
X85882Y608114D01*
X79168Y614828D01*
X79089Y614885D01*
X79014Y614947D01*
X78989Y614957D01*
X78968Y614972D01*
X78875Y615000D01*
X78784Y615035D01*
X78758Y615037D01*
X78733Y615044D01*
X78636Y615042D01*
X78538Y615046D01*
X78513Y615039D01*
X78487Y615038D01*
X78395Y615004D01*
X78302Y614977D01*
X78281Y614962D01*
X78256Y614953D01*
X78180Y614892D01*
X78100Y614837D01*
X78084Y614816D01*
X78064Y614800D01*
X78011Y614718D01*
X77953Y614640D01*
X77945Y614615D01*
X77931Y614593D01*
X77907Y614498D01*
X77877Y614406D01*
X77877Y614380D01*
X77871Y614354D01*
X77878Y614257D01*
X77879Y614160D01*
X77889Y614128D01*
X77890Y614109D01*
X77903Y614079D01*
X77926Y613999D01*
X78995Y611419D01*
X78995Y592541D01*
X77603Y589180D01*
X75030Y586607D01*
X71669Y585215D01*
X68031Y585215D01*
X64670Y586607D01*
X62097Y589180D01*
X60705Y592541D01*
X60705Y611419D01*
X62097Y614780D01*
X64670Y617353D01*
X68031Y618745D01*
X71669Y618745D01*
X74249Y617676D01*
X74316Y617660D01*
X74325Y617657D01*
X74338Y617655D01*
X74344Y617654D01*
X74437Y617625D01*
X74463Y617626D01*
X74488Y617620D01*
X74585Y617629D01*
X74682Y617632D01*
X74707Y617641D01*
X74733Y617643D01*
X74822Y617683D01*
X74913Y617716D01*
X74934Y617732D01*
X74958Y617743D01*
X75029Y617809D01*
X75106Y617870D01*
X75120Y617892D01*
X75139Y617909D01*
X75186Y617995D01*
X75239Y618077D01*
X75245Y618102D01*
X75258Y618125D01*
X75275Y618221D01*
X75299Y618315D01*
X75297Y618341D01*
X75301Y618367D01*
X75287Y618464D01*
X75279Y618560D01*
X75269Y618584D01*
X75265Y618610D01*
X75221Y618697D01*
X75183Y618787D01*
X75163Y618812D01*
X75154Y618830D01*
X75130Y618853D01*
X75107Y618882D01*
X75102Y618890D01*
X75097Y618895D01*
X75078Y618918D01*
X20573Y673423D01*
X20573Y676910D01*
X20570Y676930D01*
X20572Y676949D01*
X20550Y677051D01*
X20534Y677153D01*
X20524Y677170D01*
X20520Y677190D01*
X20467Y677279D01*
X20418Y677370D01*
X20404Y677384D01*
X20394Y677401D01*
X20315Y677468D01*
X20240Y677540D01*
X20222Y677548D01*
X20207Y677561D01*
X20111Y677600D01*
X20017Y677643D01*
X19997Y677645D01*
X19979Y677653D01*
X19812Y677671D01*
X19493Y677671D01*
X14731Y682433D01*
X14731Y689167D01*
X19493Y693929D01*
X26227Y693929D01*
X30989Y689167D01*
X30989Y682433D01*
X26227Y677671D01*
X25908Y677671D01*
X25888Y677668D01*
X25869Y677670D01*
X25767Y677648D01*
X25665Y677632D01*
X25648Y677622D01*
X25628Y677618D01*
X25539Y677565D01*
X25448Y677516D01*
X25434Y677502D01*
X25417Y677492D01*
X25350Y677413D01*
X25278Y677338D01*
X25270Y677320D01*
X25257Y677305D01*
X25218Y677209D01*
X25175Y677115D01*
X25173Y677095D01*
X25165Y677077D01*
X25147Y676910D01*
X25147Y675633D01*
X25161Y675542D01*
X25169Y675452D01*
X25181Y675422D01*
X25186Y675390D01*
X25229Y675309D01*
X25265Y675225D01*
X25291Y675193D01*
X25302Y675172D01*
X25325Y675150D01*
X25370Y675094D01*
X86161Y614303D01*
X86198Y614276D01*
X86229Y614243D01*
X86297Y614205D01*
X86360Y614160D01*
X86404Y614146D01*
X86445Y614124D01*
X86521Y614110D01*
X86595Y614087D01*
X86641Y614089D01*
X86687Y614080D01*
X86764Y614092D01*
X86841Y614094D01*
X86884Y614109D01*
X86930Y614116D01*
X86999Y614151D01*
X87072Y614178D01*
X87108Y614207D01*
X87149Y614228D01*
X87204Y614283D01*
X87264Y614332D01*
X87289Y614371D01*
X87321Y614403D01*
X87387Y614523D01*
X87397Y614539D01*
X87399Y614544D01*
X87402Y614550D01*
X87497Y614780D01*
X90070Y617353D01*
X93431Y618745D01*
X97069Y618745D01*
X100430Y617353D01*
X103003Y614780D01*
X104395Y611419D01*
X104395Y592541D01*
X103506Y590395D01*
X103484Y590300D01*
X103455Y590207D01*
X103456Y590181D01*
X103450Y590155D01*
X103459Y590059D01*
X103461Y589961D01*
X103470Y589937D01*
X103473Y589911D01*
X103512Y589822D01*
X103546Y589730D01*
X103562Y589710D01*
X103573Y589686D01*
X103639Y589614D01*
X103699Y589538D01*
X103721Y589524D01*
X103739Y589505D01*
X103824Y589458D01*
X103906Y589405D01*
X103932Y589399D01*
X103955Y589386D01*
X104051Y589369D01*
X104145Y589345D01*
X104171Y589347D01*
X104197Y589342D01*
X104293Y589357D01*
X104390Y589364D01*
X104414Y589374D01*
X104440Y589378D01*
X104527Y589422D01*
X104616Y589460D01*
X104642Y589481D01*
X104659Y589490D01*
X104683Y589513D01*
X104747Y589565D01*
X111282Y596100D01*
X111335Y596174D01*
X111395Y596244D01*
X111407Y596274D01*
X111426Y596300D01*
X111453Y596387D01*
X111487Y596472D01*
X111491Y596513D01*
X111498Y596535D01*
X111497Y596567D01*
X111505Y596638D01*
X111505Y611419D01*
X112897Y614780D01*
X115470Y617353D01*
X118831Y618745D01*
X122469Y618745D01*
X125830Y617353D01*
X128403Y614780D01*
X129795Y611419D01*
X129795Y594737D01*
X129806Y594667D01*
X129808Y594595D01*
X129826Y594546D01*
X129834Y594494D01*
X129868Y594431D01*
X129893Y594364D01*
X129925Y594323D01*
X129950Y594277D01*
X130002Y594228D01*
X130046Y594172D01*
X130090Y594144D01*
X130128Y594108D01*
X130193Y594077D01*
X130253Y594039D01*
X130304Y594026D01*
X130351Y594004D01*
X130422Y593996D01*
X130492Y593979D01*
X130544Y593983D01*
X130595Y593977D01*
X130666Y593992D01*
X130737Y593998D01*
X130785Y594018D01*
X130836Y594029D01*
X130897Y594066D01*
X130963Y594094D01*
X131019Y594139D01*
X131047Y594155D01*
X131062Y594173D01*
X131094Y594199D01*
X131606Y594711D01*
X131660Y594785D01*
X131719Y594854D01*
X131731Y594884D01*
X131750Y594911D01*
X131777Y594998D01*
X131811Y595083D01*
X131815Y595124D01*
X131822Y595146D01*
X131821Y595178D01*
X131829Y595249D01*
X131829Y794140D01*
X134652Y800956D01*
X150005Y816308D01*
X150062Y816387D01*
X150124Y816463D01*
X150133Y816487D01*
X150149Y816508D01*
X150177Y816601D01*
X150212Y816692D01*
X150213Y816718D01*
X150221Y816743D01*
X150218Y816841D01*
X150223Y816938D01*
X150215Y816963D01*
X150215Y816989D01*
X150181Y817081D01*
X150154Y817174D01*
X150139Y817196D01*
X150130Y817220D01*
X150069Y817296D01*
X150014Y817376D01*
X149993Y817392D01*
X149976Y817412D01*
X149894Y817465D01*
X149816Y817523D01*
X149792Y817531D01*
X149770Y817545D01*
X149675Y817569D01*
X149582Y817599D01*
X149556Y817599D01*
X149531Y817605D01*
X149434Y817598D01*
X149337Y817597D01*
X149305Y817588D01*
X149286Y817586D01*
X149256Y817573D01*
X149175Y817550D01*
X147957Y817045D01*
X142803Y817045D01*
X138042Y819018D01*
X134398Y822662D01*
X132425Y827423D01*
X132425Y832577D01*
X134398Y837338D01*
X138042Y840982D01*
X142803Y842955D01*
X147957Y842955D01*
X152718Y840982D01*
X156365Y837336D01*
X156412Y837260D01*
X156458Y837174D01*
X156474Y837158D01*
X156480Y837149D01*
X156482Y837147D01*
X156490Y837134D01*
X156565Y837071D01*
X156636Y837004D01*
X156660Y836993D01*
X156680Y836977D01*
X156771Y836942D01*
X156859Y836901D01*
X156885Y836898D01*
X156909Y836888D01*
X157006Y836884D01*
X157062Y836878D01*
X157103Y836874D01*
X157129Y836879D01*
X157155Y836878D01*
X157249Y836905D01*
X157344Y836926D01*
X157366Y836939D01*
X157391Y836947D01*
X157471Y837002D01*
X157515Y837028D01*
X157524Y837033D01*
X157525Y837034D01*
X157555Y837052D01*
X157572Y837072D01*
X157593Y837087D01*
X157652Y837165D01*
X157671Y837188D01*
X157694Y837211D01*
X157696Y837217D01*
X157715Y837239D01*
X157725Y837263D01*
X157740Y837284D01*
X157770Y837376D01*
X157771Y837378D01*
X157797Y837434D01*
X157798Y837446D01*
X157807Y837467D01*
X157810Y837500D01*
X157816Y837518D01*
X157816Y837551D01*
X157825Y837634D01*
X157825Y839753D01*
X160648Y846568D01*
X165971Y851892D01*
X170464Y856385D01*
X170517Y856459D01*
X170577Y856528D01*
X170589Y856558D01*
X170608Y856584D01*
X170635Y856671D01*
X170669Y856756D01*
X170673Y856797D01*
X170680Y856819D01*
X170679Y856852D01*
X170687Y856923D01*
X170687Y1059058D01*
X173510Y1065874D01*
X178726Y1071090D01*
X185542Y1073913D01*
X192918Y1073913D01*
X199734Y1071090D01*
X204950Y1065874D01*
X207773Y1059058D01*
X207773Y845238D01*
X206849Y843009D01*
X206833Y842940D01*
X206807Y842873D01*
X206805Y842821D01*
X206793Y842770D01*
X206800Y842699D01*
X206797Y842627D01*
X206812Y842577D01*
X206816Y842525D01*
X206846Y842460D01*
X206866Y842391D01*
X206895Y842348D01*
X206916Y842300D01*
X206965Y842248D01*
X207006Y842189D01*
X207048Y842158D01*
X207083Y842119D01*
X207146Y842085D01*
X207203Y842042D01*
X207253Y842026D01*
X207298Y842001D01*
X207369Y841988D01*
X207437Y841966D01*
X207489Y841966D01*
X207540Y841957D01*
X207611Y841967D01*
X207683Y841968D01*
X207752Y841988D01*
X207784Y841993D01*
X207805Y842003D01*
X207844Y842015D01*
X210113Y842955D01*
X215267Y842955D01*
X220028Y840982D01*
X223672Y837338D01*
X225645Y832577D01*
X225645Y827423D01*
X223672Y822662D01*
X220028Y819018D01*
X215267Y817045D01*
X211074Y817045D01*
X211054Y817042D01*
X211035Y817044D01*
X210933Y817022D01*
X210831Y817006D01*
X210814Y816996D01*
X210794Y816992D01*
X210705Y816939D01*
X210614Y816890D01*
X210600Y816876D01*
X210583Y816866D01*
X210516Y816787D01*
X210444Y816712D01*
X210436Y816694D01*
X210423Y816679D01*
X210384Y816583D01*
X210341Y816489D01*
X210339Y816469D01*
X210331Y816451D01*
X210313Y816284D01*
X210313Y815917D01*
X206687Y812291D01*
X206241Y812291D01*
X206150Y812277D01*
X206060Y812269D01*
X206030Y812257D01*
X205998Y812252D01*
X205917Y812209D01*
X205833Y812173D01*
X205801Y812147D01*
X205780Y812136D01*
X205758Y812113D01*
X205702Y812068D01*
X202126Y808492D01*
X202076Y808422D01*
X202034Y808379D01*
X202029Y808367D01*
X202013Y808348D01*
X202001Y808318D01*
X201982Y808292D01*
X201959Y808215D01*
X201931Y808156D01*
X201929Y808140D01*
X201921Y808120D01*
X201917Y808079D01*
X201910Y808057D01*
X201911Y808025D01*
X201903Y807953D01*
X201903Y803998D01*
X198794Y800889D01*
X194398Y800889D01*
X191254Y804034D01*
X191237Y804045D01*
X191225Y804061D01*
X191138Y804117D01*
X191054Y804177D01*
X191035Y804183D01*
X191018Y804194D01*
X190918Y804219D01*
X190819Y804250D01*
X190799Y804249D01*
X190779Y804254D01*
X190677Y804246D01*
X190573Y804243D01*
X190554Y804236D01*
X190534Y804235D01*
X190439Y804194D01*
X190342Y804159D01*
X190326Y804146D01*
X190308Y804138D01*
X190177Y804034D01*
X169138Y782994D01*
X169085Y782920D01*
X169025Y782851D01*
X169013Y782821D01*
X168994Y782795D01*
X168967Y782708D01*
X168933Y782623D01*
X168929Y782582D01*
X168922Y782559D01*
X168923Y782527D01*
X168915Y782456D01*
X168915Y686924D01*
X168926Y686854D01*
X168928Y686782D01*
X168946Y686733D01*
X168954Y686682D01*
X168988Y686618D01*
X169013Y686551D01*
X169045Y686510D01*
X169070Y686464D01*
X169122Y686415D01*
X169166Y686359D01*
X169210Y686331D01*
X169248Y686295D01*
X169313Y686265D01*
X169373Y686226D01*
X169424Y686213D01*
X169471Y686191D01*
X169542Y686183D01*
X169612Y686166D01*
X169664Y686170D01*
X169715Y686164D01*
X169786Y686179D01*
X169857Y686185D01*
X169905Y686205D01*
X169956Y686216D01*
X170017Y686253D01*
X170083Y686281D01*
X170139Y686326D01*
X170167Y686343D01*
X170182Y686360D01*
X170214Y686386D01*
X174497Y690669D01*
X175260Y690669D01*
X175280Y690672D01*
X175299Y690670D01*
X175401Y690692D01*
X175503Y690708D01*
X175520Y690718D01*
X175540Y690722D01*
X175629Y690775D01*
X175720Y690824D01*
X175734Y690838D01*
X175751Y690848D01*
X175818Y690927D01*
X175890Y691002D01*
X175898Y691020D01*
X175911Y691035D01*
X175950Y691131D01*
X175993Y691225D01*
X175995Y691245D01*
X176003Y691263D01*
X176021Y691430D01*
X176021Y721037D01*
X185743Y730759D01*
X195257Y730759D01*
X224029Y701987D01*
X224029Y597908D01*
X224040Y597838D01*
X224042Y597766D01*
X224060Y597717D01*
X224068Y597666D01*
X224102Y597602D01*
X224127Y597535D01*
X224159Y597494D01*
X224184Y597448D01*
X224235Y597399D01*
X224280Y597343D01*
X224324Y597315D01*
X224362Y597279D01*
X224427Y597249D01*
X224487Y597210D01*
X224538Y597197D01*
X224585Y597175D01*
X224656Y597167D01*
X224726Y597150D01*
X224778Y597154D01*
X224829Y597148D01*
X224900Y597163D01*
X224971Y597169D01*
X225019Y597189D01*
X225070Y597200D01*
X225131Y597237D01*
X225197Y597265D01*
X225253Y597310D01*
X225281Y597327D01*
X225296Y597344D01*
X225328Y597370D01*
X273695Y645737D01*
X273707Y645753D01*
X273722Y645765D01*
X273778Y645853D01*
X273838Y645937D01*
X273844Y645955D01*
X273855Y645972D01*
X273880Y646073D01*
X273911Y646172D01*
X273910Y646192D01*
X273915Y646211D01*
X273907Y646314D01*
X273904Y646418D01*
X273898Y646436D01*
X273896Y646456D01*
X273856Y646551D01*
X273820Y646649D01*
X273807Y646664D01*
X273800Y646682D01*
X273695Y646813D01*
X271335Y649173D01*
X271335Y655907D01*
X276097Y660669D01*
X282831Y660669D01*
X287593Y655907D01*
X287593Y650042D01*
X287604Y649972D01*
X287606Y649900D01*
X287624Y649851D01*
X287632Y649800D01*
X287666Y649736D01*
X287691Y649669D01*
X287723Y649628D01*
X287748Y649582D01*
X287799Y649533D01*
X287844Y649477D01*
X287888Y649449D01*
X287926Y649413D01*
X287991Y649383D01*
X288051Y649344D01*
X288102Y649331D01*
X288149Y649309D01*
X288220Y649301D01*
X288290Y649284D01*
X288342Y649288D01*
X288393Y649282D01*
X288464Y649297D01*
X288535Y649303D01*
X288583Y649323D01*
X288634Y649334D01*
X288695Y649371D01*
X288761Y649399D01*
X288817Y649444D01*
X288845Y649461D01*
X288860Y649478D01*
X288892Y649504D01*
X308518Y669130D01*
X308529Y669146D01*
X308545Y669158D01*
X308601Y669246D01*
X308661Y669329D01*
X308667Y669348D01*
X308678Y669365D01*
X308703Y669466D01*
X308734Y669565D01*
X308733Y669584D01*
X308738Y669604D01*
X308730Y669707D01*
X308727Y669810D01*
X308720Y669829D01*
X308719Y669849D01*
X308679Y669944D01*
X308643Y670041D01*
X308630Y670057D01*
X308623Y670075D01*
X308518Y670206D01*
X304621Y674103D01*
X304621Y691147D01*
X316674Y703200D01*
X333719Y703200D01*
X345918Y691000D01*
X345976Y690959D01*
X346028Y690909D01*
X346075Y690887D01*
X346117Y690857D01*
X346186Y690836D01*
X346251Y690806D01*
X346303Y690800D01*
X346353Y690785D01*
X346424Y690786D01*
X346495Y690779D01*
X346546Y690790D01*
X346598Y690791D01*
X346666Y690816D01*
X346736Y690831D01*
X346781Y690858D01*
X346829Y690875D01*
X346885Y690920D01*
X346947Y690957D01*
X346981Y690997D01*
X347021Y691029D01*
X347060Y691089D01*
X347107Y691144D01*
X347126Y691192D01*
X347154Y691236D01*
X347172Y691305D01*
X347199Y691372D01*
X347207Y691443D01*
X347215Y691475D01*
X347213Y691498D01*
X347217Y691539D01*
X347217Y719899D01*
X347206Y719970D01*
X347204Y720042D01*
X347186Y720091D01*
X347178Y720142D01*
X347144Y720205D01*
X347119Y720273D01*
X347087Y720313D01*
X347062Y720360D01*
X347010Y720409D01*
X346966Y720465D01*
X346922Y720493D01*
X346884Y720529D01*
X346819Y720559D01*
X346759Y720598D01*
X346708Y720611D01*
X346661Y720633D01*
X346590Y720640D01*
X346520Y720658D01*
X346468Y720654D01*
X346417Y720660D01*
X346346Y720644D01*
X346275Y720639D01*
X346227Y720618D01*
X346176Y720607D01*
X346115Y720571D01*
X346049Y720542D01*
X345993Y720498D01*
X345965Y720481D01*
X345950Y720463D01*
X345918Y720438D01*
X334139Y708659D01*
X326719Y708659D01*
X326719Y729488D01*
X326716Y729508D01*
X326718Y729527D01*
X326696Y729629D01*
X326680Y729731D01*
X326670Y729748D01*
X326666Y729768D01*
X326613Y729857D01*
X326565Y729948D01*
X326550Y729962D01*
X326540Y729979D01*
X326461Y730046D01*
X326386Y730117D01*
X326368Y730126D01*
X326353Y730139D01*
X326257Y730177D01*
X326163Y730221D01*
X326143Y730223D01*
X326125Y730231D01*
X325958Y730249D01*
X325195Y730249D01*
X325195Y730251D01*
X325958Y730251D01*
X325978Y730254D01*
X325998Y730252D01*
X326099Y730274D01*
X326201Y730291D01*
X326218Y730300D01*
X326238Y730304D01*
X326327Y730357D01*
X326418Y730406D01*
X326432Y730420D01*
X326449Y730430D01*
X326516Y730509D01*
X326588Y730584D01*
X326596Y730602D01*
X326609Y730617D01*
X326648Y730713D01*
X326691Y730807D01*
X326693Y730827D01*
X326701Y730845D01*
X326719Y731012D01*
X326719Y751841D01*
X334139Y751841D01*
X345918Y740062D01*
X345976Y740020D01*
X346028Y739971D01*
X346075Y739949D01*
X346117Y739919D01*
X346186Y739898D01*
X346251Y739867D01*
X346303Y739862D01*
X346353Y739846D01*
X346424Y739848D01*
X346495Y739840D01*
X346546Y739851D01*
X346598Y739853D01*
X346666Y739877D01*
X346736Y739893D01*
X346781Y739919D01*
X346829Y739937D01*
X346885Y739982D01*
X346947Y740019D01*
X346981Y740058D01*
X347021Y740091D01*
X347060Y740151D01*
X347107Y740206D01*
X347126Y740254D01*
X347154Y740298D01*
X347172Y740367D01*
X347199Y740434D01*
X347207Y740505D01*
X347215Y740536D01*
X347213Y740560D01*
X347217Y740601D01*
X347217Y1072774D01*
X347203Y1072864D01*
X347195Y1072955D01*
X347183Y1072985D01*
X347178Y1073017D01*
X347135Y1073097D01*
X347099Y1073181D01*
X347073Y1073213D01*
X347062Y1073234D01*
X347039Y1073256D01*
X346994Y1073312D01*
X334172Y1086134D01*
X334098Y1086187D01*
X334029Y1086247D01*
X333999Y1086259D01*
X333973Y1086278D01*
X333886Y1086305D01*
X333801Y1086339D01*
X333760Y1086343D01*
X333737Y1086350D01*
X333705Y1086349D01*
X333634Y1086357D01*
X109482Y1086357D01*
X102666Y1089180D01*
X77978Y1113868D01*
X77904Y1113921D01*
X77835Y1113981D01*
X77805Y1113993D01*
X77779Y1114012D01*
X77692Y1114039D01*
X77607Y1114073D01*
X77566Y1114077D01*
X77543Y1114084D01*
X77511Y1114083D01*
X77440Y1114091D01*
X74659Y1114091D01*
X68070Y1115857D01*
X62162Y1119268D01*
X57338Y1124092D01*
X53927Y1130000D01*
X52161Y1136589D01*
X52161Y1143411D01*
X53927Y1150000D01*
X57338Y1155908D01*
X62162Y1160732D01*
X68070Y1164143D01*
X74659Y1165909D01*
X80190Y1165909D01*
X80280Y1165923D01*
X80371Y1165931D01*
X80401Y1165943D01*
X80433Y1165948D01*
X80513Y1165991D01*
X80597Y1166027D01*
X80629Y1166053D01*
X80650Y1166064D01*
X80672Y1166087D01*
X80728Y1166132D01*
X96322Y1181725D01*
X96375Y1181799D01*
X96434Y1181869D01*
X96446Y1181899D01*
X96465Y1181925D01*
X96492Y1182012D01*
X96526Y1182097D01*
X96531Y1182138D01*
X96538Y1182160D01*
X96537Y1182192D01*
X96545Y1182263D01*
X96545Y1193313D01*
X96530Y1193403D01*
X96523Y1193494D01*
X96510Y1193523D01*
X96505Y1193555D01*
X96462Y1193636D01*
X96427Y1193720D01*
X96401Y1193752D01*
X96390Y1193773D01*
X96366Y1193795D01*
X96322Y1193851D01*
X85040Y1205133D01*
X85020Y1205147D01*
X85005Y1205166D01*
X84921Y1205218D01*
X84840Y1205276D01*
X84817Y1205283D01*
X84796Y1205296D01*
X84700Y1205319D01*
X84605Y1205349D01*
X84581Y1205348D01*
X84557Y1205354D01*
X84458Y1205345D01*
X84359Y1205342D01*
X84336Y1205334D01*
X84312Y1205332D01*
X84221Y1205292D01*
X84128Y1205258D01*
X84109Y1205242D01*
X84087Y1205232D01*
X84013Y1205166D01*
X83936Y1205104D01*
X83923Y1205083D01*
X83905Y1205067D01*
X83857Y1204991D01*
X83857Y1204990D01*
X83856Y1204989D01*
X83816Y1204925D01*
X81197Y1199486D01*
X72959Y1190607D01*
X62470Y1184552D01*
X50661Y1181856D01*
X38583Y1182762D01*
X27309Y1187187D01*
X17840Y1194738D01*
X11551Y1203962D01*
X11538Y1203976D01*
X11528Y1203993D01*
X11453Y1204065D01*
X11381Y1204140D01*
X11364Y1204149D01*
X11350Y1204162D01*
X11256Y1204206D01*
X11164Y1204255D01*
X11145Y1204258D01*
X11127Y1204266D01*
X11024Y1204278D01*
X10921Y1204294D01*
X10902Y1204291D01*
X10883Y1204293D01*
X10781Y1204271D01*
X10678Y1204254D01*
X10661Y1204245D01*
X10642Y1204241D01*
X10553Y1204188D01*
X10461Y1204139D01*
X10448Y1204125D01*
X10431Y1204115D01*
X10363Y1204036D01*
X10292Y1203960D01*
X10284Y1203943D01*
X10271Y1203928D01*
X10232Y1203831D01*
X10189Y1203737D01*
X10186Y1203718D01*
X10179Y1203700D01*
X10161Y1203533D01*
X10161Y594727D01*
X10172Y594656D01*
X10174Y594585D01*
X10192Y594536D01*
X10200Y594484D01*
X10234Y594421D01*
X10259Y594354D01*
X10291Y594313D01*
X10316Y594267D01*
X10368Y594218D01*
X10412Y594162D01*
X10456Y594133D01*
X10494Y594098D01*
X10559Y594067D01*
X10619Y594029D01*
X10670Y594016D01*
X10717Y593994D01*
X10788Y593986D01*
X10858Y593969D01*
X10910Y593973D01*
X10961Y593967D01*
X11032Y593982D01*
X11103Y593988D01*
X11151Y594008D01*
X11202Y594019D01*
X11263Y594056D01*
X11329Y594084D01*
X11385Y594129D01*
X11413Y594145D01*
X11428Y594163D01*
X11460Y594189D01*
X15442Y598171D01*
X48058Y598171D01*
X71121Y575108D01*
X71121Y542492D01*
X58122Y529493D01*
X58110Y529477D01*
X58095Y529465D01*
X58039Y529377D01*
X57978Y529294D01*
X57973Y529275D01*
X57962Y529258D01*
X57936Y529157D01*
X57906Y529058D01*
X57907Y529039D01*
X57902Y529019D01*
X57910Y528916D01*
X57912Y528813D01*
X57919Y528794D01*
X57921Y528774D01*
X57961Y528679D01*
X57997Y528582D01*
X58009Y528566D01*
X58017Y528548D01*
X58122Y528417D01*
X71121Y515418D01*
X71121Y482802D01*
X60631Y472312D01*
X60617Y472293D01*
X60598Y472277D01*
X60545Y472193D01*
X60487Y472112D01*
X60480Y472089D01*
X60467Y472069D01*
X60444Y471972D01*
X60415Y471877D01*
X60415Y471853D01*
X60410Y471830D01*
X60419Y471731D01*
X60421Y471631D01*
X60429Y471609D01*
X60432Y471585D01*
X60471Y471494D01*
X60506Y471400D01*
X60521Y471382D01*
X60530Y471360D01*
X60597Y471286D01*
X60659Y471208D01*
X60680Y471195D01*
X60696Y471178D01*
X60782Y471129D01*
X60866Y471075D01*
X60890Y471069D01*
X60911Y471058D01*
X61008Y471040D01*
X61105Y471015D01*
X61129Y471017D01*
X61152Y471013D01*
X61251Y471027D01*
X61350Y471034D01*
X61372Y471044D01*
X61396Y471047D01*
X61550Y471115D01*
X66130Y473759D01*
X73770Y475806D01*
X81678Y475806D01*
X89318Y473759D01*
X96167Y469805D01*
X101759Y464213D01*
X105713Y457364D01*
X107760Y449724D01*
X107760Y441816D01*
X105713Y434176D01*
X101759Y427327D01*
X96167Y421735D01*
X89318Y417781D01*
X81678Y415734D01*
X73770Y415734D01*
X66130Y417781D01*
X59281Y421735D01*
X53689Y427327D01*
X53364Y427890D01*
X53304Y427964D01*
X53249Y428042D01*
X53226Y428058D01*
X53209Y428080D01*
X53128Y428131D01*
X53051Y428187D01*
X53024Y428196D01*
X53000Y428211D01*
X52908Y428233D01*
X52817Y428262D01*
X52788Y428262D01*
X52761Y428268D01*
X52666Y428260D01*
X52571Y428259D01*
X52544Y428249D01*
X52516Y428247D01*
X52429Y428208D01*
X52339Y428177D01*
X52317Y428159D01*
X52291Y428148D01*
X52220Y428084D01*
X52145Y428025D01*
X52124Y427996D01*
X52109Y427982D01*
X52093Y427954D01*
X52046Y427890D01*
X51721Y427327D01*
X46129Y421735D01*
X39280Y417781D01*
X31640Y415734D01*
X23732Y415734D01*
X16092Y417781D01*
X11303Y420546D01*
X11214Y420580D01*
X11127Y420620D01*
X11099Y420623D01*
X11073Y420633D01*
X10977Y420637D01*
X10883Y420647D01*
X10855Y420641D01*
X10827Y420642D01*
X10735Y420615D01*
X10642Y420595D01*
X10618Y420580D01*
X10591Y420572D01*
X10513Y420518D01*
X10431Y420469D01*
X10413Y420447D01*
X10390Y420431D01*
X10333Y420354D01*
X10271Y420282D01*
X10261Y420255D01*
X10244Y420233D01*
X10215Y420142D01*
X10179Y420054D01*
X10175Y420018D01*
X10169Y419999D01*
X10169Y419966D01*
X10161Y419887D01*
X10161Y396723D01*
X10176Y396629D01*
X10185Y396534D01*
X10196Y396508D01*
X10200Y396480D01*
X10245Y396396D01*
X10283Y396309D01*
X10302Y396288D01*
X10316Y396263D01*
X10385Y396197D01*
X10449Y396127D01*
X10473Y396113D01*
X10494Y396094D01*
X10580Y396053D01*
X10664Y396007D01*
X10691Y396002D01*
X10717Y395990D01*
X10812Y395980D01*
X10905Y395962D01*
X10933Y395966D01*
X10961Y395963D01*
X11055Y395983D01*
X11149Y395997D01*
X11181Y396011D01*
X11202Y396015D01*
X11230Y396032D01*
X11303Y396064D01*
X16092Y398829D01*
X23732Y400876D01*
X31640Y400876D01*
X39280Y398829D01*
X46129Y394875D01*
X51721Y389283D01*
X52046Y388720D01*
X52106Y388646D01*
X52161Y388568D01*
X52184Y388552D01*
X52201Y388530D01*
X52282Y388479D01*
X52359Y388423D01*
X52386Y388414D01*
X52410Y388399D01*
X52502Y388377D01*
X52593Y388348D01*
X52622Y388348D01*
X52649Y388342D01*
X52744Y388350D01*
X52839Y388351D01*
X52866Y388361D01*
X52894Y388363D01*
X52981Y388402D01*
X53071Y388433D01*
X53093Y388451D01*
X53119Y388462D01*
X53190Y388526D01*
X53265Y388585D01*
X53286Y388614D01*
X53301Y388628D01*
X53317Y388656D01*
X53364Y388720D01*
X53689Y389283D01*
X59281Y394875D01*
X66130Y398829D01*
X73770Y400876D01*
X81678Y400876D01*
X89318Y398829D01*
X96167Y394875D01*
X101759Y389283D01*
X105713Y382434D01*
X107760Y374794D01*
X107760Y366886D01*
X105713Y359246D01*
X101759Y352397D01*
X96167Y346805D01*
X89318Y342851D01*
X81678Y340804D01*
X73770Y340804D01*
X66130Y342851D01*
X59281Y346805D01*
X53689Y352397D01*
X53364Y352960D01*
X53304Y353034D01*
X53249Y353112D01*
X53226Y353128D01*
X53208Y353150D01*
X53128Y353201D01*
X53051Y353257D01*
X53024Y353266D01*
X53000Y353281D01*
X52907Y353303D01*
X52817Y353332D01*
X52788Y353332D01*
X52761Y353338D01*
X52666Y353330D01*
X52571Y353329D01*
X52544Y353319D01*
X52516Y353317D01*
X52429Y353278D01*
X52339Y353247D01*
X52316Y353229D01*
X52291Y353218D01*
X52220Y353154D01*
X52145Y353095D01*
X52124Y353066D01*
X52109Y353052D01*
X52093Y353024D01*
X52046Y352960D01*
X51721Y352397D01*
X51394Y352071D01*
X51383Y352055D01*
X51367Y352042D01*
X51311Y351955D01*
X51251Y351871D01*
X51245Y351852D01*
X51234Y351835D01*
X51209Y351735D01*
X51178Y351636D01*
X51179Y351616D01*
X51174Y351597D01*
X51182Y351494D01*
X51185Y351390D01*
X51192Y351371D01*
X51193Y351351D01*
X51234Y351257D01*
X51269Y351159D01*
X51282Y351143D01*
X51290Y351125D01*
X51394Y350994D01*
X71121Y331268D01*
X71121Y298652D01*
X57487Y285018D01*
X57475Y285002D01*
X57460Y284990D01*
X57404Y284902D01*
X57343Y284819D01*
X57338Y284800D01*
X57327Y284783D01*
X57301Y284682D01*
X57271Y284583D01*
X57272Y284564D01*
X57267Y284544D01*
X57275Y284441D01*
X57277Y284338D01*
X57284Y284319D01*
X57286Y284299D01*
X57326Y284204D01*
X57362Y284107D01*
X57374Y284091D01*
X57382Y284073D01*
X57487Y283942D01*
X71121Y270308D01*
X71121Y237692D01*
X48058Y214629D01*
X46268Y214629D01*
X46223Y214622D01*
X46177Y214624D01*
X46102Y214602D01*
X46026Y214590D01*
X45985Y214568D01*
X45941Y214555D01*
X45877Y214511D01*
X45808Y214474D01*
X45777Y214441D01*
X45739Y214415D01*
X45692Y214352D01*
X45639Y214296D01*
X45619Y214254D01*
X45592Y214218D01*
X45568Y214144D01*
X45535Y214073D01*
X45530Y214027D01*
X45516Y213984D01*
X45517Y213906D01*
X45508Y213829D01*
X45518Y213784D01*
X45518Y213738D01*
X45556Y213606D01*
X45560Y213588D01*
X45563Y213584D01*
X45565Y213577D01*
X48896Y205536D01*
X48896Y195784D01*
X45164Y186775D01*
X38269Y179880D01*
X29260Y176148D01*
X19508Y176148D01*
X11213Y179584D01*
X11169Y179595D01*
X11127Y179614D01*
X11050Y179623D01*
X10974Y179640D01*
X10928Y179636D01*
X10883Y179641D01*
X10806Y179625D01*
X10729Y179617D01*
X10687Y179599D01*
X10642Y179589D01*
X10575Y179549D01*
X10504Y179517D01*
X10470Y179486D01*
X10431Y179463D01*
X10380Y179404D01*
X10323Y179351D01*
X10301Y179311D01*
X10271Y179276D01*
X10242Y179204D01*
X10205Y179135D01*
X10196Y179090D01*
X10179Y179048D01*
X10164Y178912D01*
X10161Y178893D01*
X10162Y178888D01*
X10161Y178881D01*
X10161Y66467D01*
X10162Y66458D01*
X10162Y66454D01*
X10164Y66445D01*
X10162Y66428D01*
X10184Y66327D01*
X10200Y66224D01*
X10210Y66207D01*
X10214Y66188D01*
X10267Y66099D01*
X10316Y66007D01*
X10330Y65994D01*
X10340Y65977D01*
X10419Y65909D01*
X10494Y65838D01*
X10512Y65829D01*
X10526Y65817D01*
X10623Y65778D01*
X10717Y65734D01*
X10736Y65732D01*
X10754Y65724D01*
X10858Y65718D01*
X10961Y65707D01*
X10980Y65711D01*
X11000Y65710D01*
X11100Y65737D01*
X11202Y65759D01*
X11219Y65769D01*
X11237Y65774D01*
X11324Y65832D01*
X11413Y65885D01*
X11426Y65900D01*
X11442Y65911D01*
X11551Y66038D01*
X11569Y66065D01*
X12088Y66826D01*
X12088Y66827D01*
X12607Y67588D01*
X13126Y68349D01*
X13127Y68349D01*
X13645Y69110D01*
X13646Y69110D01*
X14164Y69871D01*
X14164Y69872D01*
X14683Y70632D01*
X14683Y70633D01*
X14684Y70633D01*
X15202Y71394D01*
X15203Y71394D01*
X15721Y72155D01*
X15722Y72155D01*
X16240Y72916D01*
X16241Y72917D01*
X16759Y73678D01*
X16760Y73678D01*
X17278Y74439D01*
X17279Y74439D01*
X17797Y75200D01*
X17798Y75200D01*
X17840Y75262D01*
X27309Y82813D01*
X38583Y87238D01*
X50661Y88144D01*
X52049Y87827D01*
X52050Y87827D01*
X55385Y87065D01*
X58720Y86304D01*
X62055Y85543D01*
X62470Y85448D01*
X72959Y79392D01*
X81197Y70514D01*
X86452Y59602D01*
X88257Y47625D01*
X86452Y35649D01*
X81197Y24736D01*
X72959Y15857D01*
X65552Y11581D01*
X65515Y11551D01*
X65472Y11528D01*
X65420Y11473D01*
X65362Y11425D01*
X65336Y11385D01*
X65303Y11350D01*
X65271Y11281D01*
X65231Y11217D01*
X65220Y11170D01*
X65199Y11127D01*
X65191Y11052D01*
X65173Y10978D01*
X65178Y10930D01*
X65172Y10883D01*
X65188Y10808D01*
X65195Y10733D01*
X65214Y10689D01*
X65225Y10642D01*
X65263Y10577D01*
X65294Y10508D01*
X65326Y10472D01*
X65351Y10431D01*
X65408Y10382D01*
X65459Y10326D01*
X65501Y10302D01*
X65538Y10271D01*
X65608Y10243D01*
X65674Y10206D01*
X65721Y10197D01*
X65766Y10179D01*
X65894Y10165D01*
X65916Y10161D01*
X65923Y10162D01*
X65933Y10161D01*
X314834Y10161D01*
X314937Y10178D01*
G37*
G36*
X258418Y1123458D02*
X258418Y1123458D01*
X258513Y1123467D01*
X258539Y1123478D01*
X258567Y1123482D01*
X258651Y1123527D01*
X258738Y1123565D01*
X258759Y1123584D01*
X258784Y1123598D01*
X258850Y1123667D01*
X258920Y1123731D01*
X258934Y1123755D01*
X258953Y1123776D01*
X258994Y1123862D01*
X259040Y1123946D01*
X259045Y1123973D01*
X259057Y1123999D01*
X259068Y1124094D01*
X259085Y1124187D01*
X259081Y1124215D01*
X259084Y1124243D01*
X259064Y1124337D01*
X259051Y1124431D01*
X259036Y1124463D01*
X259032Y1124484D01*
X259015Y1124512D01*
X258983Y1124585D01*
X255857Y1130000D01*
X254091Y1136589D01*
X254091Y1143411D01*
X255857Y1150000D01*
X259268Y1155908D01*
X260634Y1157275D01*
X260687Y1157349D01*
X260747Y1157418D01*
X260759Y1157448D01*
X260778Y1157475D01*
X260805Y1157561D01*
X260839Y1157646D01*
X260843Y1157687D01*
X260850Y1157710D01*
X260849Y1157742D01*
X260857Y1157813D01*
X260857Y1177788D01*
X260853Y1177814D01*
X260855Y1177840D01*
X260826Y1178005D01*
X257723Y1188429D01*
X257709Y1188459D01*
X257702Y1188492D01*
X257655Y1188569D01*
X257616Y1188650D01*
X257592Y1188674D01*
X257575Y1188703D01*
X257507Y1188762D01*
X257444Y1188826D01*
X257414Y1188841D01*
X257388Y1188863D01*
X257305Y1188897D01*
X257224Y1188937D01*
X257191Y1188942D01*
X257160Y1188955D01*
X256994Y1188973D01*
X253041Y1188973D01*
X233400Y1208614D01*
X233400Y1236390D01*
X253041Y1256031D01*
X280817Y1256031D01*
X296148Y1240700D01*
X296221Y1240647D01*
X296290Y1240587D01*
X296321Y1240575D01*
X296348Y1240556D01*
X296434Y1240529D01*
X296519Y1240495D01*
X296551Y1240493D01*
X296583Y1240484D01*
X296673Y1240486D01*
X296764Y1240481D01*
X296796Y1240489D01*
X296829Y1240490D01*
X296914Y1240521D01*
X297001Y1240545D01*
X297029Y1240563D01*
X297060Y1240574D01*
X297131Y1240631D01*
X297206Y1240682D01*
X297233Y1240713D01*
X297252Y1240728D01*
X297269Y1240755D01*
X297315Y1240809D01*
X297742Y1241435D01*
X298261Y1242196D01*
X298261Y1242197D01*
X298780Y1242957D01*
X298780Y1242958D01*
X299299Y1243719D01*
X299818Y1244480D01*
X300337Y1245241D01*
X300337Y1245242D01*
X300856Y1246003D01*
X301375Y1246764D01*
X301894Y1247525D01*
X302413Y1248286D01*
X302413Y1248287D01*
X302932Y1249048D01*
X303451Y1249809D01*
X303590Y1250012D01*
X313059Y1257563D01*
X315112Y1258369D01*
X315202Y1258423D01*
X315294Y1258472D01*
X315307Y1258485D01*
X315324Y1258495D01*
X315392Y1258574D01*
X315464Y1258650D01*
X315472Y1258667D01*
X315484Y1258682D01*
X315523Y1258778D01*
X315567Y1258873D01*
X315570Y1258892D01*
X315577Y1258910D01*
X315583Y1259014D01*
X315595Y1259117D01*
X315591Y1259136D01*
X315592Y1259155D01*
X315565Y1259256D01*
X315542Y1259358D01*
X315533Y1259374D01*
X315528Y1259392D01*
X315470Y1259479D01*
X315416Y1259569D01*
X315402Y1259581D01*
X315391Y1259597D01*
X315309Y1259661D01*
X315229Y1259729D01*
X315212Y1259736D01*
X315197Y1259748D01*
X315098Y1259782D01*
X315001Y1259821D01*
X314978Y1259823D01*
X314964Y1259828D01*
X314932Y1259828D01*
X314834Y1259839D01*
X65933Y1259839D01*
X65885Y1259832D01*
X65837Y1259833D01*
X65765Y1259812D01*
X65690Y1259800D01*
X65648Y1259777D01*
X65601Y1259763D01*
X65539Y1259720D01*
X65472Y1259684D01*
X65439Y1259650D01*
X65400Y1259622D01*
X65355Y1259561D01*
X65303Y1259506D01*
X65283Y1259463D01*
X65254Y1259424D01*
X65231Y1259352D01*
X65199Y1259283D01*
X65194Y1259235D01*
X65180Y1259190D01*
X65181Y1259114D01*
X65172Y1259039D01*
X65183Y1258992D01*
X65183Y1258944D01*
X65208Y1258872D01*
X65225Y1258798D01*
X65249Y1258757D01*
X65265Y1258712D01*
X65312Y1258652D01*
X65351Y1258587D01*
X65387Y1258556D01*
X65417Y1258518D01*
X65521Y1258442D01*
X65538Y1258427D01*
X65544Y1258425D01*
X65552Y1258419D01*
X72959Y1254142D01*
X81197Y1245264D01*
X83733Y1239997D01*
X83747Y1239977D01*
X83756Y1239954D01*
X83807Y1239890D01*
X83831Y1239850D01*
X83844Y1239838D01*
X83874Y1239795D01*
X83894Y1239781D01*
X83910Y1239762D01*
X83993Y1239708D01*
X84072Y1239649D01*
X84096Y1239642D01*
X84116Y1239629D01*
X84213Y1239604D01*
X84307Y1239574D01*
X84331Y1239575D01*
X84355Y1239569D01*
X84454Y1239576D01*
X84553Y1239578D01*
X84576Y1239586D01*
X84600Y1239588D01*
X84673Y1239619D01*
X84676Y1239619D01*
X84681Y1239622D01*
X84691Y1239626D01*
X84785Y1239659D01*
X84804Y1239674D01*
X84827Y1239684D01*
X84882Y1239729D01*
X84893Y1239734D01*
X84904Y1239746D01*
X84957Y1239789D01*
X101199Y1256031D01*
X128975Y1256031D01*
X148616Y1236390D01*
X148616Y1208614D01*
X133853Y1193851D01*
X133800Y1193777D01*
X133741Y1193708D01*
X133728Y1193677D01*
X133710Y1193651D01*
X133683Y1193564D01*
X133649Y1193479D01*
X133644Y1193438D01*
X133637Y1193416D01*
X133638Y1193384D01*
X133630Y1193313D01*
X133630Y1170579D01*
X130807Y1163764D01*
X106207Y1139163D01*
X106195Y1139147D01*
X106179Y1139135D01*
X106123Y1139047D01*
X106063Y1138964D01*
X106057Y1138945D01*
X106046Y1138928D01*
X106021Y1138827D01*
X105991Y1138728D01*
X105991Y1138709D01*
X105986Y1138689D01*
X105994Y1138586D01*
X105997Y1138483D01*
X106004Y1138464D01*
X106006Y1138444D01*
X106046Y1138349D01*
X106082Y1138252D01*
X106094Y1138236D01*
X106102Y1138218D01*
X106207Y1138087D01*
X120628Y1123666D01*
X120702Y1123613D01*
X120771Y1123553D01*
X120801Y1123541D01*
X120827Y1123522D01*
X120914Y1123495D01*
X120999Y1123461D01*
X121040Y1123457D01*
X121063Y1123450D01*
X121095Y1123451D01*
X121166Y1123443D01*
X258324Y1123443D01*
X258418Y1123458D01*
G37*
G36*
X183752Y476767D02*
X183752Y476767D01*
X183823Y476773D01*
X183871Y476793D01*
X183922Y476804D01*
X183983Y476841D01*
X184049Y476869D01*
X184105Y476914D01*
X184133Y476931D01*
X184148Y476948D01*
X184180Y476974D01*
X210088Y502882D01*
X210141Y502956D01*
X210201Y503026D01*
X210213Y503056D01*
X210232Y503082D01*
X210259Y503169D01*
X210293Y503254D01*
X210297Y503295D01*
X210304Y503317D01*
X210303Y503349D01*
X210311Y503421D01*
X210311Y516753D01*
X210293Y516866D01*
X210275Y516983D01*
X210273Y516989D01*
X210272Y516995D01*
X210217Y517098D01*
X210164Y517203D01*
X210159Y517207D01*
X210156Y517213D01*
X210072Y517293D01*
X209988Y517375D01*
X209982Y517379D01*
X209978Y517382D01*
X209961Y517390D01*
X209841Y517456D01*
X208408Y518049D01*
X206264Y520193D01*
X205104Y522994D01*
X205104Y526026D01*
X206264Y528827D01*
X208408Y530971D01*
X211209Y532131D01*
X214241Y532131D01*
X217042Y530971D01*
X218156Y529857D01*
X218214Y529815D01*
X218266Y529765D01*
X218313Y529743D01*
X218355Y529713D01*
X218424Y529692D01*
X218489Y529662D01*
X218541Y529656D01*
X218591Y529641D01*
X218662Y529643D01*
X218733Y529635D01*
X218784Y529646D01*
X218836Y529647D01*
X218904Y529672D01*
X218974Y529687D01*
X219019Y529714D01*
X219067Y529731D01*
X219123Y529776D01*
X219185Y529813D01*
X219219Y529853D01*
X219259Y529885D01*
X219298Y529945D01*
X219345Y530000D01*
X219364Y530048D01*
X219392Y530092D01*
X219410Y530162D01*
X219437Y530228D01*
X219445Y530299D01*
X219453Y530331D01*
X219451Y530354D01*
X219455Y530395D01*
X219455Y699777D01*
X219441Y699868D01*
X219433Y699958D01*
X219421Y699988D01*
X219416Y700020D01*
X219373Y700101D01*
X219337Y700185D01*
X219311Y700217D01*
X219300Y700238D01*
X219277Y700260D01*
X219232Y700316D01*
X200055Y719493D01*
X199997Y719535D01*
X199945Y719584D01*
X199898Y719606D01*
X199856Y719636D01*
X199787Y719657D01*
X199722Y719688D01*
X199670Y719693D01*
X199620Y719709D01*
X199549Y719707D01*
X199478Y719715D01*
X199427Y719704D01*
X199375Y719702D01*
X199307Y719678D01*
X199237Y719663D01*
X199192Y719636D01*
X199144Y719618D01*
X199088Y719573D01*
X199026Y719536D01*
X198992Y719497D01*
X198952Y719464D01*
X198913Y719404D01*
X198866Y719349D01*
X198847Y719301D01*
X198819Y719257D01*
X198801Y719188D01*
X198774Y719121D01*
X198766Y719050D01*
X198758Y719019D01*
X198760Y718995D01*
X198756Y718955D01*
X198756Y717178D01*
X197499Y714143D01*
X195177Y711821D01*
X192142Y710564D01*
X190318Y710564D01*
X190248Y710553D01*
X190176Y710551D01*
X190127Y710533D01*
X190076Y710525D01*
X190012Y710491D01*
X189945Y710466D01*
X189904Y710434D01*
X189858Y710409D01*
X189809Y710357D01*
X189753Y710313D01*
X189725Y710269D01*
X189689Y710231D01*
X189659Y710166D01*
X189620Y710106D01*
X189607Y710055D01*
X189585Y710008D01*
X189577Y709937D01*
X189560Y709867D01*
X189564Y709815D01*
X189558Y709764D01*
X189573Y709693D01*
X189579Y709622D01*
X189599Y709574D01*
X189610Y709523D01*
X189647Y709462D01*
X189675Y709396D01*
X189720Y709340D01*
X189737Y709312D01*
X189754Y709297D01*
X189780Y709265D01*
X192759Y706286D01*
X192759Y702331D01*
X192773Y702240D01*
X192781Y702150D01*
X192787Y702135D01*
X192787Y677233D01*
X180818Y665264D01*
X180765Y665190D01*
X180705Y665120D01*
X180693Y665090D01*
X180674Y665064D01*
X180647Y664977D01*
X180613Y664892D01*
X180609Y664851D01*
X180602Y664829D01*
X180603Y664797D01*
X180595Y664725D01*
X180595Y661430D01*
X180598Y661410D01*
X180596Y661391D01*
X180618Y661289D01*
X180634Y661187D01*
X180644Y661170D01*
X180648Y661150D01*
X180701Y661061D01*
X180750Y660970D01*
X180764Y660956D01*
X180774Y660939D01*
X180853Y660872D01*
X180928Y660800D01*
X180946Y660792D01*
X180961Y660779D01*
X181057Y660740D01*
X181151Y660697D01*
X181171Y660695D01*
X181189Y660687D01*
X181215Y660684D01*
X185993Y655907D01*
X185993Y649173D01*
X181231Y644411D01*
X174497Y644411D01*
X170214Y648694D01*
X170156Y648736D01*
X170104Y648785D01*
X170057Y648807D01*
X170015Y648838D01*
X169946Y648859D01*
X169881Y648889D01*
X169829Y648895D01*
X169779Y648910D01*
X169708Y648908D01*
X169637Y648916D01*
X169586Y648905D01*
X169534Y648904D01*
X169466Y648879D01*
X169396Y648864D01*
X169351Y648837D01*
X169303Y648819D01*
X169247Y648774D01*
X169185Y648737D01*
X169151Y648698D01*
X169111Y648665D01*
X169072Y648605D01*
X169025Y648551D01*
X169006Y648502D01*
X168978Y648458D01*
X168960Y648389D01*
X168933Y648322D01*
X168925Y648251D01*
X168917Y648220D01*
X168919Y648197D01*
X168915Y648156D01*
X168915Y628361D01*
X168926Y628290D01*
X168928Y628219D01*
X168946Y628170D01*
X168954Y628118D01*
X168988Y628055D01*
X169013Y627988D01*
X169045Y627947D01*
X169070Y627901D01*
X169122Y627852D01*
X169166Y627796D01*
X169210Y627767D01*
X169248Y627732D01*
X169313Y627701D01*
X169373Y627663D01*
X169424Y627650D01*
X169471Y627628D01*
X169542Y627620D01*
X169612Y627603D01*
X169664Y627607D01*
X169715Y627601D01*
X169786Y627616D01*
X169857Y627622D01*
X169905Y627642D01*
X169956Y627653D01*
X170017Y627690D01*
X170083Y627718D01*
X170139Y627763D01*
X170167Y627779D01*
X170182Y627797D01*
X170214Y627823D01*
X174076Y631685D01*
X176341Y631685D01*
X176341Y623302D01*
X176344Y623282D01*
X176342Y623263D01*
X176364Y623161D01*
X176381Y623059D01*
X176390Y623042D01*
X176394Y623022D01*
X176447Y622933D01*
X176496Y622842D01*
X176510Y622828D01*
X176520Y622811D01*
X176599Y622744D01*
X176674Y622673D01*
X176692Y622664D01*
X176707Y622651D01*
X176803Y622613D01*
X176897Y622569D01*
X176917Y622567D01*
X176935Y622559D01*
X177102Y622541D01*
X177865Y622541D01*
X177865Y622539D01*
X177102Y622539D01*
X177082Y622536D01*
X177063Y622538D01*
X176961Y622516D01*
X176859Y622499D01*
X176842Y622490D01*
X176822Y622486D01*
X176733Y622433D01*
X176642Y622384D01*
X176628Y622370D01*
X176611Y622360D01*
X176544Y622281D01*
X176473Y622206D01*
X176464Y622188D01*
X176451Y622173D01*
X176412Y622077D01*
X176369Y621983D01*
X176367Y621963D01*
X176359Y621945D01*
X176341Y621778D01*
X176341Y613395D01*
X174076Y613395D01*
X170214Y617257D01*
X170156Y617299D01*
X170104Y617348D01*
X170057Y617370D01*
X170015Y617401D01*
X169946Y617422D01*
X169881Y617452D01*
X169829Y617458D01*
X169779Y617473D01*
X169708Y617471D01*
X169637Y617479D01*
X169586Y617468D01*
X169534Y617467D01*
X169466Y617442D01*
X169396Y617427D01*
X169351Y617400D01*
X169303Y617382D01*
X169247Y617337D01*
X169185Y617301D01*
X169151Y617261D01*
X169111Y617229D01*
X169072Y617168D01*
X169025Y617114D01*
X169006Y617065D01*
X168978Y617022D01*
X168960Y616952D01*
X168933Y616886D01*
X168925Y616814D01*
X168917Y616783D01*
X168919Y616760D01*
X168915Y616719D01*
X168915Y596924D01*
X168926Y596854D01*
X168928Y596782D01*
X168946Y596733D01*
X168954Y596682D01*
X168988Y596618D01*
X169013Y596551D01*
X169045Y596510D01*
X169070Y596464D01*
X169122Y596415D01*
X169166Y596359D01*
X169210Y596331D01*
X169248Y596295D01*
X169313Y596265D01*
X169373Y596226D01*
X169424Y596213D01*
X169471Y596191D01*
X169542Y596183D01*
X169612Y596166D01*
X169664Y596170D01*
X169715Y596164D01*
X169786Y596179D01*
X169857Y596185D01*
X169905Y596205D01*
X169956Y596216D01*
X170017Y596253D01*
X170083Y596281D01*
X170139Y596326D01*
X170167Y596343D01*
X170182Y596360D01*
X170214Y596386D01*
X174497Y600669D01*
X181231Y600669D01*
X185993Y595907D01*
X185993Y589173D01*
X181231Y584411D01*
X174498Y584411D01*
X174478Y584408D01*
X174459Y584410D01*
X174357Y584388D01*
X174255Y584372D01*
X174238Y584362D01*
X174218Y584358D01*
X174129Y584305D01*
X174038Y584256D01*
X174024Y584242D01*
X174007Y584232D01*
X173940Y584153D01*
X173868Y584078D01*
X173860Y584060D01*
X173847Y584045D01*
X173808Y583949D01*
X173765Y583855D01*
X173763Y583835D01*
X173755Y583817D01*
X173737Y583650D01*
X173737Y517080D01*
X173756Y516965D01*
X173773Y516849D01*
X173775Y516843D01*
X173776Y516837D01*
X173831Y516735D01*
X173884Y516630D01*
X173889Y516625D01*
X173892Y516620D01*
X173976Y516540D01*
X174060Y516458D01*
X174066Y516454D01*
X174070Y516451D01*
X174087Y516443D01*
X174207Y516377D01*
X175767Y515731D01*
X177008Y514490D01*
X177066Y514448D01*
X177118Y514398D01*
X177165Y514376D01*
X177207Y514346D01*
X177276Y514325D01*
X177341Y514295D01*
X177393Y514289D01*
X177443Y514274D01*
X177514Y514276D01*
X177585Y514268D01*
X177636Y514279D01*
X177688Y514280D01*
X177756Y514305D01*
X177826Y514320D01*
X177871Y514347D01*
X177919Y514364D01*
X177975Y514409D01*
X178037Y514446D01*
X178071Y514486D01*
X178111Y514518D01*
X178150Y514578D01*
X178197Y514633D01*
X178216Y514681D01*
X178244Y514725D01*
X178262Y514795D01*
X178289Y514861D01*
X178297Y514932D01*
X178305Y514964D01*
X178303Y514987D01*
X178307Y515028D01*
X178307Y544631D01*
X178293Y544721D01*
X178285Y544812D01*
X178273Y544841D01*
X178268Y544873D01*
X178225Y544954D01*
X178189Y545038D01*
X178163Y545070D01*
X178152Y545091D01*
X178129Y545113D01*
X178084Y545169D01*
X175287Y547966D01*
X175287Y552362D01*
X178396Y555471D01*
X182792Y555471D01*
X185901Y552362D01*
X185901Y547966D01*
X183104Y545169D01*
X183051Y545095D01*
X182991Y545025D01*
X182979Y544995D01*
X182960Y544969D01*
X182933Y544882D01*
X182899Y544797D01*
X182895Y544756D01*
X182888Y544734D01*
X182889Y544702D01*
X182881Y544631D01*
X182881Y477512D01*
X182892Y477442D01*
X182894Y477370D01*
X182912Y477321D01*
X182920Y477270D01*
X182954Y477206D01*
X182979Y477139D01*
X183011Y477098D01*
X183036Y477052D01*
X183088Y477003D01*
X183132Y476947D01*
X183176Y476919D01*
X183214Y476883D01*
X183279Y476853D01*
X183339Y476814D01*
X183390Y476801D01*
X183437Y476779D01*
X183508Y476771D01*
X183578Y476754D01*
X183630Y476758D01*
X183681Y476752D01*
X183752Y476767D01*
G37*
%LPC*%
G36*
X224237Y14096D02*
X224237Y14096D01*
X204596Y33737D01*
X204596Y61513D01*
X224237Y81154D01*
X252013Y81154D01*
X271654Y61513D01*
X271654Y33737D01*
X252013Y14096D01*
X224237Y14096D01*
G37*
%LPD*%
G36*
X281222Y318528D02*
X281222Y318528D01*
X281294Y318530D01*
X281343Y318548D01*
X281394Y318556D01*
X281458Y318590D01*
X281525Y318615D01*
X281566Y318647D01*
X281612Y318672D01*
X281661Y318724D01*
X281717Y318768D01*
X281745Y318812D01*
X281781Y318850D01*
X281811Y318915D01*
X281850Y318975D01*
X281863Y319026D01*
X281885Y319073D01*
X281893Y319144D01*
X281910Y319214D01*
X281906Y319266D01*
X281912Y319317D01*
X281897Y319388D01*
X281891Y319459D01*
X281871Y319507D01*
X281860Y319558D01*
X281823Y319619D01*
X281795Y319685D01*
X281750Y319741D01*
X281733Y319769D01*
X281716Y319784D01*
X281690Y319816D01*
X281653Y319854D01*
X280724Y321131D01*
X280007Y322538D01*
X279519Y324040D01*
X279388Y324867D01*
X288544Y324867D01*
X288564Y324870D01*
X288583Y324868D01*
X288685Y324890D01*
X288787Y324907D01*
X288804Y324916D01*
X288824Y324920D01*
X288913Y324973D01*
X289004Y325022D01*
X289018Y325036D01*
X289035Y325046D01*
X289102Y325125D01*
X289173Y325200D01*
X289182Y325218D01*
X289195Y325233D01*
X289233Y325329D01*
X289277Y325423D01*
X289279Y325443D01*
X289287Y325461D01*
X289305Y325628D01*
X289305Y326391D01*
X289307Y326391D01*
X289307Y325628D01*
X289310Y325608D01*
X289308Y325589D01*
X289330Y325487D01*
X289347Y325385D01*
X289356Y325368D01*
X289360Y325348D01*
X289413Y325259D01*
X289462Y325168D01*
X289476Y325154D01*
X289486Y325137D01*
X289565Y325070D01*
X289640Y324999D01*
X289658Y324990D01*
X289673Y324977D01*
X289769Y324938D01*
X289863Y324895D01*
X289883Y324893D01*
X289901Y324885D01*
X290068Y324867D01*
X299224Y324867D01*
X299093Y324040D01*
X298605Y322538D01*
X297888Y321131D01*
X296959Y319854D01*
X296922Y319816D01*
X296880Y319758D01*
X296831Y319706D01*
X296809Y319659D01*
X296779Y319617D01*
X296757Y319548D01*
X296727Y319483D01*
X296722Y319431D01*
X296706Y319382D01*
X296708Y319310D01*
X296700Y319239D01*
X296711Y319188D01*
X296713Y319136D01*
X296737Y319068D01*
X296752Y318998D01*
X296779Y318954D01*
X296797Y318905D01*
X296842Y318849D01*
X296879Y318787D01*
X296918Y318753D01*
X296951Y318713D01*
X297011Y318674D01*
X297065Y318627D01*
X297114Y318608D01*
X297157Y318580D01*
X297227Y318562D01*
X297294Y318535D01*
X297365Y318527D01*
X297396Y318519D01*
X297419Y318521D01*
X297460Y318517D01*
X303537Y318517D01*
X303628Y318531D01*
X303718Y318539D01*
X303748Y318551D01*
X303780Y318556D01*
X303861Y318599D01*
X303945Y318635D01*
X303977Y318661D01*
X303998Y318672D01*
X304020Y318695D01*
X304076Y318740D01*
X306572Y321236D01*
X306640Y321330D01*
X306710Y321424D01*
X306712Y321430D01*
X306715Y321435D01*
X306749Y321546D01*
X306786Y321658D01*
X306786Y321664D01*
X306788Y321670D01*
X306785Y321787D01*
X306783Y321904D01*
X306781Y321911D01*
X306781Y321916D01*
X306775Y321934D01*
X306737Y322065D01*
X305688Y324596D01*
X305688Y328184D01*
X307061Y331498D01*
X309598Y334035D01*
X312912Y335408D01*
X316500Y335408D01*
X319814Y334035D01*
X319816Y334033D01*
X319832Y334021D01*
X319845Y334006D01*
X319932Y333950D01*
X320016Y333889D01*
X320035Y333883D01*
X320052Y333873D01*
X320152Y333847D01*
X320251Y333817D01*
X320271Y333817D01*
X320290Y333812D01*
X320393Y333821D01*
X320497Y333823D01*
X320516Y333830D01*
X320536Y333832D01*
X320630Y333872D01*
X320728Y333908D01*
X320744Y333920D01*
X320762Y333928D01*
X320893Y334033D01*
X331254Y344394D01*
X331296Y344452D01*
X331345Y344504D01*
X331367Y344551D01*
X331397Y344593D01*
X331418Y344662D01*
X331449Y344727D01*
X331454Y344779D01*
X331470Y344829D01*
X331468Y344900D01*
X331476Y344971D01*
X331465Y345022D01*
X331463Y345074D01*
X331439Y345142D01*
X331424Y345212D01*
X331397Y345256D01*
X331379Y345305D01*
X331334Y345361D01*
X331297Y345423D01*
X331258Y345457D01*
X331225Y345497D01*
X331165Y345536D01*
X331110Y345583D01*
X331062Y345602D01*
X331018Y345630D01*
X330949Y345648D01*
X330882Y345675D01*
X330811Y345683D01*
X330780Y345691D01*
X330756Y345689D01*
X330716Y345693D01*
X328229Y345693D01*
X324588Y347201D01*
X321801Y349988D01*
X320293Y353629D01*
X320293Y357571D01*
X321476Y360426D01*
X321503Y360539D01*
X321531Y360653D01*
X321531Y360659D01*
X321532Y360665D01*
X321521Y360782D01*
X321512Y360898D01*
X321510Y360904D01*
X321509Y360910D01*
X321461Y361018D01*
X321416Y361124D01*
X321411Y361130D01*
X321409Y361135D01*
X321396Y361148D01*
X321311Y361255D01*
X296956Y385610D01*
X296940Y385621D01*
X296928Y385637D01*
X296840Y385693D01*
X296757Y385753D01*
X296738Y385759D01*
X296721Y385770D01*
X296620Y385795D01*
X296521Y385826D01*
X296502Y385825D01*
X296482Y385830D01*
X296379Y385822D01*
X296276Y385819D01*
X296257Y385812D01*
X296237Y385811D01*
X296142Y385770D01*
X296045Y385735D01*
X296029Y385722D01*
X296011Y385715D01*
X295880Y385610D01*
X287786Y377516D01*
X287718Y377422D01*
X287648Y377327D01*
X287646Y377321D01*
X287642Y377316D01*
X287608Y377205D01*
X287572Y377093D01*
X287572Y377087D01*
X287570Y377081D01*
X287573Y376964D01*
X287574Y376847D01*
X287576Y376840D01*
X287576Y376835D01*
X287583Y376818D01*
X287621Y376686D01*
X289116Y373076D01*
X289116Y368604D01*
X287405Y364473D01*
X284243Y361311D01*
X280112Y359600D01*
X275640Y359600D01*
X271509Y361311D01*
X268347Y364473D01*
X266636Y368604D01*
X266636Y372054D01*
X266624Y372125D01*
X266622Y372196D01*
X266604Y372245D01*
X266596Y372297D01*
X266562Y372360D01*
X266538Y372427D01*
X266505Y372468D01*
X266481Y372514D01*
X266429Y372564D01*
X266384Y372620D01*
X266340Y372648D01*
X266303Y372684D01*
X266238Y372714D01*
X266177Y372753D01*
X266127Y372765D01*
X266080Y372787D01*
X266008Y372795D01*
X265939Y372813D01*
X265887Y372809D01*
X265835Y372814D01*
X265765Y372799D01*
X265694Y372793D01*
X265646Y372773D01*
X265595Y372762D01*
X265533Y372725D01*
X265467Y372697D01*
X265411Y372652D01*
X265384Y372636D01*
X265368Y372618D01*
X265336Y372592D01*
X253970Y361226D01*
X253917Y361152D01*
X253857Y361082D01*
X253845Y361052D01*
X253826Y361026D01*
X253799Y360939D01*
X253765Y360854D01*
X253761Y360813D01*
X253754Y360791D01*
X253755Y360759D01*
X253747Y360687D01*
X253747Y337765D01*
X253761Y337675D01*
X253769Y337584D01*
X253781Y337555D01*
X253786Y337523D01*
X253829Y337442D01*
X253865Y337358D01*
X253891Y337326D01*
X253902Y337305D01*
X253925Y337283D01*
X253970Y337227D01*
X256767Y334430D01*
X256767Y333842D01*
X256778Y333771D01*
X256780Y333699D01*
X256798Y333650D01*
X256806Y333599D01*
X256840Y333535D01*
X256865Y333468D01*
X256897Y333427D01*
X256922Y333381D01*
X256974Y333332D01*
X257018Y333276D01*
X257062Y333248D01*
X257100Y333212D01*
X257165Y333182D01*
X257225Y333143D01*
X257276Y333130D01*
X257323Y333108D01*
X257394Y333101D01*
X257464Y333083D01*
X257516Y333087D01*
X257567Y333081D01*
X257638Y333097D01*
X257709Y333102D01*
X257757Y333122D01*
X257808Y333134D01*
X257869Y333170D01*
X257935Y333198D01*
X257991Y333243D01*
X258019Y333260D01*
X258034Y333278D01*
X258066Y333303D01*
X258798Y334035D01*
X262112Y335408D01*
X265700Y335408D01*
X269014Y334035D01*
X271551Y331498D01*
X272924Y328184D01*
X272924Y324596D01*
X271551Y321282D01*
X270085Y319816D01*
X270043Y319758D01*
X269994Y319706D01*
X269972Y319659D01*
X269942Y319617D01*
X269921Y319548D01*
X269890Y319483D01*
X269885Y319431D01*
X269869Y319381D01*
X269871Y319310D01*
X269863Y319239D01*
X269874Y319188D01*
X269876Y319136D01*
X269900Y319068D01*
X269916Y318998D01*
X269942Y318953D01*
X269960Y318905D01*
X270005Y318849D01*
X270042Y318787D01*
X270081Y318753D01*
X270114Y318713D01*
X270174Y318674D01*
X270229Y318627D01*
X270277Y318608D01*
X270321Y318580D01*
X270390Y318562D01*
X270457Y318535D01*
X270528Y318527D01*
X270559Y318519D01*
X270583Y318521D01*
X270624Y318517D01*
X281152Y318517D01*
X281222Y318528D01*
G37*
%LPC*%
G36*
X91739Y725169D02*
X91739Y725169D01*
X84955Y726987D01*
X78874Y730498D01*
X73908Y735464D01*
X70397Y741545D01*
X68579Y748329D01*
X68579Y755351D01*
X70397Y762135D01*
X73908Y768216D01*
X78874Y773182D01*
X84955Y776693D01*
X91739Y778511D01*
X98761Y778511D01*
X105545Y776693D01*
X111626Y773182D01*
X116592Y768216D01*
X120103Y762135D01*
X121921Y755351D01*
X121921Y748329D01*
X120103Y741545D01*
X116592Y735464D01*
X111626Y730498D01*
X105545Y726987D01*
X98761Y725169D01*
X91739Y725169D01*
G37*
%LPD*%
%LPC*%
G36*
X328229Y104393D02*
X328229Y104393D01*
X324588Y105901D01*
X321801Y108688D01*
X320619Y111543D01*
X320557Y111643D01*
X320497Y111743D01*
X320493Y111747D01*
X320489Y111752D01*
X320399Y111827D01*
X320310Y111903D01*
X320305Y111905D01*
X320300Y111909D01*
X320191Y111951D01*
X320082Y111995D01*
X320075Y111996D01*
X320070Y111997D01*
X320052Y111998D01*
X319916Y112013D01*
X287851Y112013D01*
X284974Y114890D01*
X284880Y114957D01*
X284786Y115028D01*
X284780Y115030D01*
X284775Y115033D01*
X284664Y115067D01*
X284552Y115104D01*
X284546Y115104D01*
X284540Y115106D01*
X284423Y115102D01*
X284306Y115101D01*
X284299Y115099D01*
X284294Y115099D01*
X284276Y115093D01*
X284145Y115055D01*
X280175Y113410D01*
X275577Y113410D01*
X271329Y115170D01*
X268078Y118421D01*
X266318Y122669D01*
X266318Y127267D01*
X268078Y131515D01*
X271329Y134766D01*
X275577Y136526D01*
X280175Y136526D01*
X284423Y134766D01*
X287674Y131515D01*
X289434Y127267D01*
X289434Y122669D01*
X287938Y119058D01*
X287912Y118945D01*
X287883Y118831D01*
X287883Y118825D01*
X287882Y118819D01*
X287893Y118702D01*
X287902Y118586D01*
X287904Y118580D01*
X287905Y118574D01*
X287953Y118467D01*
X287998Y118360D01*
X288003Y118354D01*
X288005Y118349D01*
X288018Y118336D01*
X288103Y118229D01*
X289522Y116810D01*
X289596Y116757D01*
X289666Y116697D01*
X289696Y116685D01*
X289722Y116666D01*
X289809Y116639D01*
X289894Y116605D01*
X289935Y116601D01*
X289957Y116594D01*
X289989Y116595D01*
X290061Y116587D01*
X319916Y116587D01*
X320030Y116606D01*
X320147Y116623D01*
X320152Y116625D01*
X320158Y116626D01*
X320261Y116681D01*
X320366Y116734D01*
X320370Y116739D01*
X320376Y116742D01*
X320456Y116826D01*
X320538Y116910D01*
X320542Y116916D01*
X320545Y116920D01*
X320553Y116937D01*
X320619Y117057D01*
X321801Y119912D01*
X324588Y122699D01*
X328229Y124207D01*
X332171Y124207D01*
X335812Y122699D01*
X338599Y119912D01*
X340107Y116271D01*
X340107Y112329D01*
X338599Y108688D01*
X335812Y105901D01*
X332171Y104393D01*
X328229Y104393D01*
G37*
%LPD*%
%LPC*%
G36*
X188786Y1200425D02*
X188786Y1200425D01*
X185620Y1201737D01*
X183197Y1204160D01*
X181885Y1207326D01*
X181885Y1210754D01*
X183197Y1213920D01*
X185620Y1216343D01*
X188786Y1217655D01*
X189728Y1217655D01*
X189774Y1217662D01*
X189820Y1217660D01*
X189894Y1217682D01*
X189971Y1217694D01*
X190012Y1217716D01*
X190056Y1217729D01*
X190120Y1217773D01*
X190189Y1217810D01*
X190220Y1217843D01*
X190258Y1217869D01*
X190304Y1217931D01*
X190358Y1217988D01*
X190377Y1218030D01*
X190405Y1218066D01*
X190429Y1218140D01*
X190462Y1218211D01*
X190467Y1218257D01*
X190481Y1218300D01*
X190480Y1218378D01*
X190489Y1218455D01*
X190479Y1218500D01*
X190478Y1218546D01*
X190440Y1218678D01*
X190436Y1218696D01*
X190434Y1218700D01*
X190432Y1218707D01*
X189885Y1220026D01*
X189885Y1223454D01*
X190034Y1223812D01*
X190059Y1223919D01*
X190088Y1224024D01*
X190087Y1224038D01*
X190090Y1224052D01*
X190080Y1224161D01*
X190074Y1224269D01*
X190068Y1224283D01*
X190067Y1224297D01*
X190023Y1224397D01*
X189982Y1224498D01*
X189973Y1224508D01*
X189967Y1224521D01*
X189893Y1224602D01*
X189822Y1224685D01*
X189810Y1224692D01*
X189801Y1224703D01*
X189705Y1224755D01*
X189611Y1224811D01*
X189595Y1224816D01*
X189585Y1224821D01*
X189557Y1224826D01*
X189450Y1224856D01*
X188245Y1225046D01*
X186803Y1225515D01*
X185452Y1226203D01*
X184226Y1227094D01*
X183154Y1228166D01*
X182263Y1229392D01*
X181575Y1230743D01*
X181106Y1232185D01*
X180990Y1232917D01*
X189738Y1232917D01*
X189758Y1232920D01*
X189777Y1232918D01*
X189879Y1232940D01*
X189981Y1232957D01*
X189998Y1232966D01*
X190018Y1232970D01*
X190107Y1233023D01*
X190198Y1233072D01*
X190212Y1233086D01*
X190229Y1233096D01*
X190296Y1233175D01*
X190367Y1233250D01*
X190376Y1233268D01*
X190389Y1233283D01*
X190427Y1233379D01*
X190471Y1233473D01*
X190473Y1233493D01*
X190481Y1233511D01*
X190499Y1233678D01*
X190499Y1235202D01*
X190496Y1235222D01*
X190498Y1235241D01*
X190476Y1235343D01*
X190459Y1235445D01*
X190450Y1235462D01*
X190446Y1235482D01*
X190393Y1235571D01*
X190344Y1235662D01*
X190330Y1235676D01*
X190320Y1235693D01*
X190241Y1235760D01*
X190166Y1235831D01*
X190148Y1235840D01*
X190133Y1235853D01*
X190037Y1235892D01*
X189943Y1235935D01*
X189923Y1235937D01*
X189905Y1235945D01*
X189738Y1235963D01*
X180990Y1235963D01*
X181106Y1236695D01*
X181575Y1238137D01*
X182263Y1239488D01*
X183154Y1240714D01*
X184226Y1241786D01*
X185452Y1242677D01*
X186803Y1243365D01*
X188245Y1243834D01*
X189450Y1244024D01*
X189553Y1244058D01*
X189658Y1244089D01*
X189670Y1244097D01*
X189683Y1244102D01*
X189770Y1244167D01*
X189860Y1244229D01*
X189869Y1244241D01*
X189880Y1244249D01*
X189941Y1244339D01*
X190007Y1244427D01*
X190011Y1244440D01*
X190019Y1244452D01*
X190049Y1244556D01*
X190083Y1244661D01*
X190083Y1244675D01*
X190087Y1244688D01*
X190082Y1244797D01*
X190081Y1244907D01*
X190076Y1244923D01*
X190075Y1244934D01*
X190065Y1244961D01*
X190034Y1245068D01*
X189885Y1245426D01*
X189885Y1248854D01*
X191197Y1252020D01*
X193620Y1254443D01*
X196786Y1255755D01*
X200214Y1255755D01*
X203380Y1254443D01*
X205803Y1252020D01*
X207115Y1248854D01*
X207115Y1245426D01*
X205803Y1242260D01*
X203380Y1239837D01*
X200127Y1238489D01*
X200104Y1238486D01*
X200090Y1238478D01*
X200074Y1238475D01*
X199981Y1238421D01*
X199887Y1238370D01*
X199876Y1238359D01*
X199862Y1238351D01*
X199791Y1238270D01*
X199717Y1238192D01*
X199711Y1238178D01*
X199700Y1238166D01*
X199659Y1238066D01*
X199614Y1237969D01*
X199612Y1237953D01*
X199606Y1237938D01*
X199598Y1237831D01*
X199587Y1237725D01*
X199590Y1237709D01*
X199589Y1237693D01*
X199623Y1237529D01*
X199894Y1236695D01*
X200010Y1235963D01*
X191262Y1235963D01*
X191242Y1235960D01*
X191223Y1235962D01*
X191121Y1235940D01*
X191019Y1235923D01*
X191002Y1235914D01*
X190982Y1235910D01*
X190893Y1235857D01*
X190802Y1235808D01*
X190788Y1235794D01*
X190771Y1235784D01*
X190704Y1235705D01*
X190633Y1235630D01*
X190624Y1235612D01*
X190611Y1235597D01*
X190573Y1235501D01*
X190529Y1235407D01*
X190527Y1235387D01*
X190519Y1235369D01*
X190501Y1235202D01*
X190501Y1233678D01*
X190504Y1233658D01*
X190502Y1233639D01*
X190524Y1233537D01*
X190541Y1233435D01*
X190550Y1233418D01*
X190554Y1233398D01*
X190607Y1233309D01*
X190656Y1233218D01*
X190670Y1233204D01*
X190680Y1233187D01*
X190759Y1233120D01*
X190834Y1233049D01*
X190852Y1233040D01*
X190867Y1233027D01*
X190963Y1232988D01*
X191057Y1232945D01*
X191077Y1232943D01*
X191095Y1232935D01*
X191262Y1232917D01*
X200010Y1232917D01*
X199894Y1232185D01*
X199623Y1231351D01*
X199620Y1231335D01*
X199614Y1231321D01*
X199602Y1231215D01*
X199586Y1231108D01*
X199588Y1231092D01*
X199587Y1231077D01*
X199609Y1230972D01*
X199628Y1230866D01*
X199635Y1230852D01*
X199639Y1230836D01*
X199694Y1230744D01*
X199745Y1230650D01*
X199757Y1230639D01*
X199765Y1230625D01*
X199847Y1230555D01*
X199925Y1230482D01*
X199940Y1230476D01*
X199952Y1230465D01*
X200051Y1230425D01*
X200074Y1230413D01*
X200134Y1230388D01*
X200149Y1230381D01*
X200151Y1230381D01*
X203380Y1229043D01*
X205803Y1226620D01*
X207115Y1223454D01*
X207115Y1220026D01*
X205803Y1216860D01*
X203380Y1214437D01*
X200214Y1213125D01*
X199272Y1213125D01*
X199226Y1213118D01*
X199180Y1213120D01*
X199106Y1213098D01*
X199029Y1213086D01*
X198988Y1213064D01*
X198944Y1213051D01*
X198880Y1213007D01*
X198811Y1212970D01*
X198780Y1212937D01*
X198742Y1212911D01*
X198696Y1212849D01*
X198642Y1212792D01*
X198623Y1212750D01*
X198595Y1212714D01*
X198571Y1212640D01*
X198538Y1212569D01*
X198533Y1212523D01*
X198519Y1212480D01*
X198520Y1212402D01*
X198511Y1212325D01*
X198521Y1212280D01*
X198522Y1212234D01*
X198560Y1212102D01*
X198564Y1212084D01*
X198566Y1212080D01*
X198568Y1212073D01*
X199115Y1210754D01*
X199115Y1207326D01*
X197803Y1204160D01*
X195380Y1201737D01*
X192214Y1200425D01*
X188786Y1200425D01*
G37*
%LPD*%
%LPC*%
G36*
X75493Y817045D02*
X75493Y817045D01*
X70732Y819018D01*
X67088Y822662D01*
X65115Y827423D01*
X65115Y832577D01*
X67088Y837338D01*
X70732Y840982D01*
X75493Y842955D01*
X80647Y842955D01*
X85408Y840982D01*
X89052Y837338D01*
X91025Y832577D01*
X91025Y827423D01*
X89052Y822662D01*
X85408Y819018D01*
X80647Y817045D01*
X75493Y817045D01*
G37*
%LPD*%
%LPC*%
G36*
X277423Y817045D02*
X277423Y817045D01*
X272662Y819018D01*
X269018Y822662D01*
X267045Y827423D01*
X267045Y832577D01*
X269018Y837338D01*
X272662Y840982D01*
X277423Y842955D01*
X282577Y842955D01*
X287338Y840982D01*
X290982Y837338D01*
X292955Y832577D01*
X292955Y827423D01*
X290982Y822662D01*
X287338Y819018D01*
X282577Y817045D01*
X277423Y817045D01*
G37*
%LPD*%
%LPC*%
G36*
X303605Y731773D02*
X303605Y731773D01*
X303605Y739193D01*
X316253Y751841D01*
X323673Y751841D01*
X323673Y731773D01*
X303605Y731773D01*
G37*
%LPD*%
%LPC*%
G36*
X316253Y708659D02*
X316253Y708659D01*
X303605Y721307D01*
X303605Y728727D01*
X323673Y728727D01*
X323673Y708659D01*
X316253Y708659D01*
G37*
%LPD*%
%LPC*%
G36*
X328229Y205993D02*
X328229Y205993D01*
X324588Y207501D01*
X321801Y210288D01*
X320293Y213929D01*
X320293Y217871D01*
X321801Y221512D01*
X324588Y224299D01*
X328229Y225807D01*
X332171Y225807D01*
X335812Y224299D01*
X338599Y221512D01*
X340107Y217871D01*
X340107Y213929D01*
X338599Y210288D01*
X335812Y207501D01*
X332171Y205993D01*
X328229Y205993D01*
G37*
%LPD*%
%LPC*%
G36*
X328229Y447293D02*
X328229Y447293D01*
X324588Y448801D01*
X321801Y451588D01*
X320293Y455229D01*
X320293Y459171D01*
X321801Y462812D01*
X324588Y465599D01*
X328229Y467107D01*
X332171Y467107D01*
X335812Y465599D01*
X338599Y462812D01*
X340107Y459171D01*
X340107Y455229D01*
X338599Y451588D01*
X335812Y448801D01*
X332171Y447293D01*
X328229Y447293D01*
G37*
%LPD*%
%LPC*%
G36*
X183137Y761364D02*
X183137Y761364D01*
X182244Y762257D01*
X182244Y776983D01*
X183137Y777876D01*
X197863Y777876D01*
X198756Y776983D01*
X198756Y762257D01*
X197863Y761364D01*
X183137Y761364D01*
G37*
%LPD*%
%LPC*%
G36*
X311871Y553719D02*
X311871Y553719D01*
X308510Y555111D01*
X305937Y557684D01*
X304545Y561045D01*
X304545Y564683D01*
X305937Y568044D01*
X308510Y570617D01*
X311871Y572009D01*
X315509Y572009D01*
X318870Y570617D01*
X321443Y568044D01*
X322835Y564683D01*
X322835Y561045D01*
X321443Y557684D01*
X318870Y555111D01*
X315509Y553719D01*
X311871Y553719D01*
G37*
%LPD*%
%LPC*%
G36*
X286471Y553719D02*
X286471Y553719D01*
X283110Y555111D01*
X280537Y557684D01*
X279145Y561045D01*
X279145Y564683D01*
X280537Y568044D01*
X283110Y570617D01*
X286471Y572009D01*
X290109Y572009D01*
X293470Y570617D01*
X296043Y568044D01*
X297435Y564683D01*
X297435Y561045D01*
X296043Y557684D01*
X293470Y555111D01*
X290109Y553719D01*
X286471Y553719D01*
G37*
%LPD*%
%LPC*%
G36*
X19493Y741171D02*
X19493Y741171D01*
X14731Y745933D01*
X14731Y752667D01*
X19493Y757429D01*
X26227Y757429D01*
X30989Y752667D01*
X30989Y745933D01*
X26227Y741171D01*
X19493Y741171D01*
G37*
%LPD*%
%LPC*%
G36*
X19493Y703071D02*
X19493Y703071D01*
X14731Y707833D01*
X14731Y714567D01*
X19493Y719329D01*
X26227Y719329D01*
X30989Y714567D01*
X30989Y707833D01*
X26227Y703071D01*
X19493Y703071D01*
G37*
%LPD*%
%LPC*%
G36*
X276097Y674411D02*
X276097Y674411D01*
X271335Y679173D01*
X271335Y685907D01*
X276097Y690669D01*
X282831Y690669D01*
X287593Y685907D01*
X287593Y679173D01*
X282831Y674411D01*
X276097Y674411D01*
G37*
%LPD*%
%LPC*%
G36*
X276097Y584411D02*
X276097Y584411D01*
X271335Y589173D01*
X271335Y595907D01*
X276097Y600669D01*
X282831Y600669D01*
X287593Y595907D01*
X287593Y589173D01*
X282831Y584411D01*
X276097Y584411D01*
G37*
%LPD*%
%LPC*%
G36*
X265058Y710564D02*
X265058Y710564D01*
X262023Y711821D01*
X259701Y714143D01*
X258444Y717178D01*
X258444Y720462D01*
X259701Y723497D01*
X262023Y725819D01*
X265058Y727076D01*
X268342Y727076D01*
X271377Y725819D01*
X273699Y723497D01*
X274956Y720462D01*
X274956Y717178D01*
X273699Y714143D01*
X271377Y711821D01*
X268342Y710564D01*
X265058Y710564D01*
G37*
%LPD*%
%LPC*%
G36*
X111514Y501649D02*
X111514Y501649D01*
X108713Y502809D01*
X106569Y504953D01*
X105409Y507754D01*
X105409Y510786D01*
X106569Y513587D01*
X108713Y515731D01*
X111514Y516891D01*
X114546Y516891D01*
X117347Y515731D01*
X119491Y513587D01*
X120651Y510786D01*
X120651Y507754D01*
X119491Y504953D01*
X117347Y502809D01*
X114546Y501649D01*
X111514Y501649D01*
G37*
%LPD*%
%LPC*%
G36*
X122278Y112704D02*
X122278Y112704D01*
X120395Y113315D01*
X118632Y114214D01*
X117031Y115377D01*
X115631Y116777D01*
X114468Y118378D01*
X113569Y120141D01*
X112958Y122024D01*
X112733Y123445D01*
X123699Y123445D01*
X123699Y112479D01*
X122278Y112704D01*
G37*
%LPD*%
G36*
X172232Y491494D02*
X172232Y491494D01*
X172251Y491492D01*
X172353Y491514D01*
X172455Y491531D01*
X172472Y491540D01*
X172492Y491544D01*
X172581Y491597D01*
X172672Y491646D01*
X172686Y491660D01*
X172703Y491670D01*
X172770Y491749D01*
X172841Y491824D01*
X172850Y491842D01*
X172863Y491857D01*
X172902Y491953D01*
X172945Y492047D01*
X172947Y492067D01*
X172955Y492085D01*
X172973Y492252D01*
X172973Y500127D01*
X175027Y500127D01*
X177008Y498146D01*
X177066Y498105D01*
X177118Y498055D01*
X177165Y498033D01*
X177207Y498003D01*
X177276Y497982D01*
X177341Y497952D01*
X177393Y497946D01*
X177443Y497931D01*
X177514Y497932D01*
X177585Y497924D01*
X177636Y497936D01*
X177688Y497937D01*
X177756Y497962D01*
X177826Y497977D01*
X177871Y498003D01*
X177919Y498021D01*
X177975Y498066D01*
X178037Y498103D01*
X178071Y498142D01*
X178111Y498175D01*
X178150Y498235D01*
X178197Y498290D01*
X178216Y498338D01*
X178244Y498382D01*
X178262Y498451D01*
X178289Y498518D01*
X178297Y498589D01*
X178305Y498620D01*
X178303Y498644D01*
X178307Y498685D01*
X178307Y503512D01*
X178296Y503583D01*
X178294Y503655D01*
X178276Y503704D01*
X178268Y503755D01*
X178234Y503818D01*
X178209Y503886D01*
X178177Y503926D01*
X178152Y503972D01*
X178100Y504022D01*
X178056Y504078D01*
X178012Y504106D01*
X177974Y504142D01*
X177909Y504172D01*
X177849Y504211D01*
X177798Y504223D01*
X177751Y504245D01*
X177680Y504253D01*
X177610Y504271D01*
X177558Y504267D01*
X177507Y504272D01*
X177436Y504257D01*
X177365Y504252D01*
X177317Y504231D01*
X177266Y504220D01*
X177205Y504183D01*
X177139Y504155D01*
X177083Y504110D01*
X177055Y504094D01*
X177040Y504076D01*
X177008Y504050D01*
X175767Y502809D01*
X172966Y501649D01*
X169934Y501649D01*
X167133Y502809D01*
X165204Y504738D01*
X165146Y504780D01*
X165094Y504830D01*
X165047Y504852D01*
X165005Y504882D01*
X164936Y504903D01*
X164871Y504933D01*
X164819Y504939D01*
X164769Y504954D01*
X164698Y504952D01*
X164627Y504960D01*
X164576Y504949D01*
X164524Y504948D01*
X164456Y504923D01*
X164386Y504908D01*
X164341Y504881D01*
X164293Y504864D01*
X164237Y504819D01*
X164175Y504782D01*
X164141Y504742D01*
X164101Y504710D01*
X164062Y504650D01*
X164015Y504595D01*
X163996Y504547D01*
X163968Y504503D01*
X163950Y504433D01*
X163923Y504367D01*
X163915Y504296D01*
X163907Y504264D01*
X163909Y504241D01*
X163905Y504200D01*
X163905Y497997D01*
X163916Y497926D01*
X163918Y497854D01*
X163936Y497805D01*
X163944Y497754D01*
X163978Y497691D01*
X164003Y497623D01*
X164035Y497583D01*
X164060Y497537D01*
X164112Y497487D01*
X164156Y497431D01*
X164200Y497403D01*
X164238Y497367D01*
X164303Y497337D01*
X164363Y497298D01*
X164414Y497286D01*
X164461Y497264D01*
X164532Y497256D01*
X164602Y497238D01*
X164654Y497242D01*
X164705Y497236D01*
X164776Y497252D01*
X164847Y497257D01*
X164895Y497278D01*
X164946Y497289D01*
X165007Y497326D01*
X165073Y497354D01*
X165129Y497398D01*
X165157Y497415D01*
X165172Y497433D01*
X165204Y497458D01*
X167873Y500127D01*
X169927Y500127D01*
X169927Y492252D01*
X169930Y492232D01*
X169928Y492213D01*
X169950Y492111D01*
X169967Y492009D01*
X169976Y491992D01*
X169980Y491972D01*
X170033Y491883D01*
X170082Y491792D01*
X170096Y491778D01*
X170106Y491761D01*
X170185Y491694D01*
X170260Y491623D01*
X170278Y491614D01*
X170293Y491601D01*
X170389Y491563D01*
X170483Y491519D01*
X170503Y491517D01*
X170521Y491509D01*
X170688Y491491D01*
X172212Y491491D01*
X172232Y491494D01*
G37*
%LPC*%
G36*
X264413Y488187D02*
X264413Y488187D01*
X264413Y496825D01*
X270844Y496825D01*
X271491Y496652D01*
X272070Y496317D01*
X272543Y495844D01*
X272878Y495265D01*
X273051Y494618D01*
X273051Y488187D01*
X264413Y488187D01*
G37*
%LPD*%
%LPC*%
G36*
X252729Y488187D02*
X252729Y488187D01*
X252729Y494618D01*
X252902Y495265D01*
X253237Y495844D01*
X253710Y496317D01*
X254289Y496652D01*
X254936Y496825D01*
X261367Y496825D01*
X261367Y488187D01*
X252729Y488187D01*
G37*
%LPD*%
%LPC*%
G36*
X264413Y476503D02*
X264413Y476503D01*
X264413Y485141D01*
X273051Y485141D01*
X273051Y478710D01*
X272878Y478063D01*
X272543Y477484D01*
X272070Y477011D01*
X271491Y476676D01*
X270844Y476503D01*
X264413Y476503D01*
G37*
%LPD*%
%LPC*%
G36*
X254936Y476503D02*
X254936Y476503D01*
X254289Y476676D01*
X253710Y477011D01*
X253237Y477484D01*
X252902Y478063D01*
X252729Y478710D01*
X252729Y485141D01*
X261367Y485141D01*
X261367Y476503D01*
X254936Y476503D01*
G37*
%LPD*%
%LPC*%
G36*
X290829Y327913D02*
X290829Y327913D01*
X290829Y336308D01*
X291656Y336177D01*
X293158Y335689D01*
X294565Y334972D01*
X295843Y334043D01*
X296959Y332927D01*
X297888Y331649D01*
X298605Y330242D01*
X299093Y328740D01*
X299224Y327913D01*
X290829Y327913D01*
G37*
%LPD*%
%LPC*%
G36*
X279388Y327913D02*
X279388Y327913D01*
X279519Y328740D01*
X280007Y330242D01*
X280724Y331649D01*
X281653Y332927D01*
X282769Y334043D01*
X284047Y334972D01*
X285454Y335689D01*
X286956Y336177D01*
X287783Y336308D01*
X287783Y327913D01*
X279388Y327913D01*
G37*
%LPD*%
%LPC*%
G36*
X179387Y624063D02*
X179387Y624063D01*
X179387Y631685D01*
X181652Y631685D01*
X187009Y626328D01*
X187009Y624063D01*
X179387Y624063D01*
G37*
%LPD*%
%LPC*%
G36*
X24383Y776223D02*
X24383Y776223D01*
X24383Y783845D01*
X26648Y783845D01*
X32005Y778488D01*
X32005Y776223D01*
X24383Y776223D01*
G37*
%LPD*%
%LPC*%
G36*
X97449Y292793D02*
X97449Y292793D01*
X97449Y295058D01*
X102806Y300415D01*
X105071Y300415D01*
X105071Y292793D01*
X97449Y292793D01*
G37*
%LPD*%
%LPC*%
G36*
X179387Y613395D02*
X179387Y613395D01*
X179387Y621017D01*
X187009Y621017D01*
X187009Y618752D01*
X181652Y613395D01*
X179387Y613395D01*
G37*
%LPD*%
%LPC*%
G36*
X24383Y765555D02*
X24383Y765555D01*
X24383Y773177D01*
X32005Y773177D01*
X32005Y770912D01*
X26648Y765555D01*
X24383Y765555D01*
G37*
%LPD*%
%LPC*%
G36*
X13715Y776223D02*
X13715Y776223D01*
X13715Y778488D01*
X19072Y783845D01*
X21337Y783845D01*
X21337Y776223D01*
X13715Y776223D01*
G37*
%LPD*%
%LPC*%
G36*
X19072Y765555D02*
X19072Y765555D01*
X13715Y770912D01*
X13715Y773177D01*
X21337Y773177D01*
X21337Y765555D01*
X19072Y765555D01*
G37*
%LPD*%
%LPC*%
G36*
X268223Y771143D02*
X268223Y771143D01*
X268223Y778770D01*
X269404Y778535D01*
X271092Y777837D01*
X272610Y776822D01*
X273902Y775530D01*
X274917Y774012D01*
X275615Y772324D01*
X275850Y771143D01*
X268223Y771143D01*
G37*
%LPD*%
%LPC*%
G36*
X268223Y768097D02*
X268223Y768097D01*
X275850Y768097D01*
X275615Y766916D01*
X274917Y765228D01*
X273902Y763710D01*
X272610Y762418D01*
X271092Y761403D01*
X269404Y760705D01*
X268223Y760470D01*
X268223Y768097D01*
G37*
%LPD*%
%LPC*%
G36*
X257550Y771143D02*
X257550Y771143D01*
X257785Y772324D01*
X258483Y774012D01*
X259498Y775530D01*
X260790Y776822D01*
X262308Y777837D01*
X263996Y778535D01*
X265177Y778770D01*
X265177Y771143D01*
X257550Y771143D01*
G37*
%LPD*%
%LPC*%
G36*
X263996Y760705D02*
X263996Y760705D01*
X262308Y761403D01*
X260790Y762418D01*
X259498Y763710D01*
X258483Y765228D01*
X257785Y766916D01*
X257550Y768097D01*
X265177Y768097D01*
X265177Y760470D01*
X263996Y760705D01*
G37*
%LPD*%
%LPC*%
G36*
X90423Y532383D02*
X90423Y532383D01*
X90423Y539497D01*
X97537Y539497D01*
X97537Y537443D01*
X92477Y532383D01*
X90423Y532383D01*
G37*
%LPD*%
%LPC*%
G36*
X85323Y532383D02*
X85323Y532383D01*
X80263Y537443D01*
X80263Y539497D01*
X87377Y539497D01*
X87377Y532383D01*
X85323Y532383D01*
G37*
%LPD*%
%LPC*%
G36*
X239648Y500633D02*
X239648Y500633D01*
X239648Y507613D01*
X240644Y507415D01*
X242216Y506764D01*
X243631Y505819D01*
X244834Y504616D01*
X245779Y503201D01*
X246430Y501629D01*
X246628Y500633D01*
X239648Y500633D01*
G37*
%LPD*%
%LPC*%
G36*
X239648Y497587D02*
X239648Y497587D01*
X246628Y497587D01*
X246430Y496591D01*
X245779Y495019D01*
X244834Y493604D01*
X243631Y492401D01*
X242216Y491456D01*
X240644Y490805D01*
X239648Y490607D01*
X239648Y497587D01*
G37*
%LPD*%
%LPC*%
G36*
X235606Y490805D02*
X235606Y490805D01*
X234034Y491456D01*
X232619Y492401D01*
X231416Y493604D01*
X230471Y495019D01*
X229820Y496591D01*
X229622Y497587D01*
X236602Y497587D01*
X236602Y490607D01*
X235606Y490805D01*
G37*
%LPD*%
%LPC*%
G36*
X266699Y769619D02*
X266699Y769619D01*
X266699Y769621D01*
X266701Y769621D01*
X266701Y769619D01*
X266699Y769619D01*
G37*
%LPD*%
%LPC*%
G36*
X238124Y499109D02*
X238124Y499109D01*
X238124Y499111D01*
X238126Y499111D01*
X238126Y499109D01*
X238124Y499109D01*
G37*
%LPD*%
%LPC*%
G36*
X262889Y486663D02*
X262889Y486663D01*
X262889Y486665D01*
X262891Y486665D01*
X262891Y486663D01*
X262889Y486663D01*
G37*
%LPD*%
%LPC*%
G36*
X22859Y774699D02*
X22859Y774699D01*
X22859Y774701D01*
X22861Y774701D01*
X22861Y774699D01*
X22859Y774699D01*
G37*
%LPD*%
D10*
X171450Y491490D03*
D11*
X171450Y509270D03*
D10*
X88900Y541020D03*
D11*
X88900Y558800D03*
D12*
X330200Y114300D03*
X330200Y215900D03*
D13*
X69850Y594360D02*
X69850Y609600D01*
X95250Y609600D02*
X95250Y594360D01*
X120650Y594360D02*
X120650Y609600D01*
D14*
X177864Y592540D03*
X279464Y592540D03*
X106594Y291270D03*
X208194Y291270D03*
D15*
X280000Y1140000D03*
X78070Y1140000D03*
X280000Y830000D03*
X212690Y830000D03*
X145380Y830000D03*
X78070Y830000D03*
D16*
X277876Y200660D03*
X125222Y200660D03*
X74930Y200660D03*
X24384Y200660D03*
X24384Y124968D03*
X74930Y124968D03*
X125222Y124968D03*
X277876Y124968D03*
D17*
X266929Y1222502D03*
X115087Y1222502D03*
X325196Y635000D03*
X325196Y682625D03*
X325196Y730250D03*
X238125Y47625D03*
X142875Y47625D03*
D18*
X262890Y486664D03*
D19*
X288290Y486664D03*
X313690Y486664D03*
X339090Y486664D03*
X339090Y562864D03*
X313690Y562864D03*
X288290Y562864D03*
X262890Y562864D03*
D20*
X277876Y445770D03*
X127762Y445770D03*
X77724Y445770D03*
X27686Y445770D03*
X27686Y370840D03*
X77724Y370840D03*
X127762Y370840D03*
X277876Y370840D03*
D12*
X330200Y457200D03*
X330200Y355600D03*
D21*
X22860Y749300D03*
X22860Y774700D03*
D17*
X31750Y558800D03*
X31750Y499110D03*
X31750Y314960D03*
X31750Y254000D03*
D10*
X113030Y491490D03*
D11*
X113030Y509270D03*
D22*
X208194Y261270D03*
X106594Y261270D03*
D11*
X238125Y499110D03*
X212725Y524510D03*
X238125Y549910D03*
D23*
X340106Y326390D03*
D24*
X314706Y326390D03*
X289306Y326390D03*
X263906Y326390D03*
X263906Y250190D03*
X289306Y250190D03*
X314706Y250190D03*
X340106Y250190D03*
D25*
X190500Y769620D03*
D26*
X190500Y718820D03*
X266700Y718820D03*
X266700Y769620D03*
D14*
X177864Y652540D03*
X279464Y652540D03*
D22*
X208194Y321270D03*
X106594Y321270D03*
D14*
X177864Y682540D03*
X279464Y682540D03*
D21*
X22860Y685800D03*
X22860Y711200D03*
D14*
X177864Y622540D03*
X279464Y622540D03*
D27*
X190500Y1209040D03*
X198500Y1221740D03*
X190500Y1234440D03*
X198500Y1247140D03*
D12*
X232410Y336550D03*
X232410Y234950D03*
D28*
X171450Y509270D02*
X171450Y585978D01*
X177546Y592074D01*
X177864Y592540D01*
X232410Y413004D02*
X232410Y336550D01*
X232410Y413004D02*
X250698Y431292D01*
D29*
X250698Y431292D03*
D28*
X196596Y806196D02*
X204978Y814578D01*
X205740Y814578D01*
X208026Y816864D01*
X208026Y825246D01*
X212598Y829818D01*
X212690Y830000D01*
D29*
X196596Y806196D03*
D30*
X79445Y1138625D02*
X78070Y1140000D01*
X79445Y1138625D02*
X113170Y1104900D01*
X341630Y1104900D01*
X365760Y1080770D01*
X365760Y574239D02*
X366162Y573837D01*
X366162Y158750D01*
X349250Y158750D01*
X347980Y157480D01*
X194310Y158750D01*
X153745Y118185D01*
X153745Y105544D01*
X143510Y95309D01*
X143510Y48006D01*
X365760Y574239D02*
X365760Y1080770D01*
X115087Y1174267D02*
X115087Y1222502D01*
X115087Y1174267D02*
X79445Y1138625D01*
X143256Y48006D02*
X142875Y47625D01*
X143256Y48006D02*
X143510Y48006D01*
X279400Y1180600D02*
X266929Y1222502D01*
X279400Y1180600D02*
X279400Y1140714D01*
D29*
X189230Y1055370D03*
X189230Y1045210D03*
D30*
X189230Y1055370D02*
X189230Y848927D01*
X176368Y836065D01*
X109040Y234854D02*
X74930Y200660D01*
X109040Y234854D02*
X139616Y234854D01*
X156270Y469997D02*
X145362Y480905D01*
X156270Y469997D02*
X156270Y251508D01*
X139616Y234854D01*
X176368Y816448D02*
X176368Y836065D01*
X150372Y587253D02*
X145362Y582243D01*
X150372Y587253D02*
X150372Y790452D01*
X145362Y582243D02*
X145362Y480905D01*
X150372Y790452D02*
X176368Y816448D01*
X279400Y1140714D02*
X279654Y1140714D01*
X280000Y1140000D01*
D28*
X281940Y637032D02*
X334518Y584454D01*
X334518Y574548D01*
X339090Y569976D01*
X339090Y562864D01*
D29*
X281940Y637032D03*
D28*
X28194Y496062D02*
X28194Y445770D01*
X28194Y496062D02*
X31242Y499110D01*
X28194Y445770D02*
X27686Y445770D01*
X31242Y499110D02*
X31750Y499110D01*
X28194Y370332D02*
X28194Y318516D01*
X31750Y314960D01*
X28194Y370332D02*
X27686Y370840D01*
X288798Y114300D02*
X330200Y114300D01*
X288798Y114300D02*
X278130Y124968D01*
X277876Y124968D01*
X178308Y682752D02*
X178308Y720090D01*
X186690Y728472D01*
X194310Y728472D01*
X221742Y701040D01*
X221742Y506730D01*
X186690Y471678D01*
X186690Y325374D01*
X261366Y250698D01*
X263652Y250698D01*
X177864Y682540D02*
X178308Y682752D01*
X263652Y250698D02*
X263906Y250190D01*
X278130Y249936D02*
X288798Y249936D01*
X278130Y249936D02*
X263652Y235458D01*
X232410Y235458D01*
X288798Y249936D02*
X289306Y250190D01*
X307848Y400812D02*
X307848Y461772D01*
X296418Y389382D02*
X277876Y370840D01*
X296418Y389382D02*
X307848Y400812D01*
X296418Y389382D02*
X330200Y355600D01*
X22860Y674370D02*
X22860Y685800D01*
X22860Y674370D02*
X95250Y601980D01*
X94488Y601980D02*
X94488Y580644D01*
X80010Y566166D01*
X80010Y555498D01*
X85344Y550164D01*
X122682Y550164D01*
X95250Y601980D02*
X94488Y601980D01*
X220980Y235458D02*
X232410Y235458D01*
X220980Y235458D02*
X180594Y275844D01*
X180594Y550164D01*
X232410Y235458D02*
X232410Y234950D01*
D29*
X307848Y461772D03*
X122682Y550164D03*
X180594Y550164D03*
D28*
X89154Y559308D02*
X89154Y570738D01*
X120396Y601980D01*
X89154Y559308D02*
X88900Y558800D01*
X120396Y601980D02*
X120650Y601980D01*
X208788Y320802D02*
X220218Y320802D01*
X224790Y316230D01*
X304800Y316230D01*
X314706Y326136D01*
X208788Y320802D02*
X208194Y321270D01*
X314706Y326136D02*
X314706Y326390D01*
X313944Y387096D02*
X313944Y486156D01*
X313944Y387096D02*
X341376Y359664D01*
X341376Y351282D01*
X316992Y326898D01*
X314706Y326898D01*
X313944Y486156D02*
X313690Y486664D01*
X314706Y326898D02*
X314706Y326390D01*
X278892Y622554D02*
X278892Y630936D01*
X275844Y633984D01*
X275844Y640080D01*
X278892Y643128D01*
X285750Y643128D01*
X324612Y681990D01*
X279464Y622540D02*
X278892Y622554D01*
X324612Y681990D02*
X325196Y682625D01*
X263652Y326136D02*
X246126Y326136D01*
X241554Y321564D01*
X224028Y321564D01*
X192786Y352806D01*
X192786Y468630D01*
X252984Y528828D01*
X252984Y595884D01*
X278892Y621792D01*
X263906Y326390D02*
X263652Y326136D01*
X278892Y621792D02*
X279464Y622540D01*
X278892Y647700D02*
X278892Y652272D01*
X278892Y647700D02*
X224790Y593598D01*
X224790Y505206D01*
X189738Y470154D01*
X189738Y326898D01*
X256032Y260604D01*
X318516Y260604D01*
X324612Y254508D01*
X324612Y246126D01*
X291846Y213360D01*
X191262Y213360D01*
X102870Y124968D01*
X74930Y124968D01*
X278892Y652272D02*
X279464Y652540D01*
X303276Y249936D02*
X314706Y249936D01*
X303276Y249936D02*
X269748Y216408D01*
X158496Y216408D01*
X80010Y137922D01*
X37338Y137922D01*
X24384Y124968D01*
X314706Y249936D02*
X314706Y250190D01*
X277368Y387858D02*
X277368Y445770D01*
X277368Y387858D02*
X251460Y361950D01*
X251460Y332232D01*
X277368Y445770D02*
X277876Y445770D01*
D29*
X251460Y332232D03*
D28*
X178308Y653034D02*
X178308Y665988D01*
X190500Y678180D01*
X190500Y701040D01*
X187452Y704088D01*
X178308Y653034D02*
X177864Y652540D01*
D29*
X187452Y704088D03*
D28*
X198882Y391668D02*
X201930Y391668D01*
X283464Y473202D01*
X293370Y473202D01*
X300990Y480822D01*
X300990Y483108D01*
X300228Y483870D01*
X300228Y489966D01*
X300990Y490728D01*
X300990Y493014D01*
X320802Y512826D01*
D29*
X198882Y391668D03*
X320802Y512826D03*
D28*
X212598Y502158D02*
X212598Y524256D01*
X212598Y502158D02*
X183642Y473202D01*
X183642Y285750D01*
X208026Y261366D01*
X212598Y524256D02*
X212725Y524510D01*
X208026Y261366D02*
X208194Y261270D01*
X106680Y261366D02*
X106680Y278130D01*
X115824Y287274D01*
X115824Y365760D01*
X113538Y368046D01*
X113538Y491490D01*
X106680Y261366D02*
X106594Y261270D01*
X113030Y491490D02*
X113538Y491490D01*
M02*
