G04 EAGLE Gerber RS-274X export*
G75*
%MOMM*%
%FSLAX34Y34*%
%LPD*%
%IN*%
%IPPOS*%
%AMOC8*
5,1,8,0,0,1.08239X$1,22.5*%
G01*
%ADD10C,0.254000*%


D10*
X0Y0D02*
X381000Y0D01*
X381000Y1270000D01*
X0Y1270000D01*
X0Y0D01*
X111760Y751300D02*
X111689Y750221D01*
X111548Y749149D01*
X111337Y748089D01*
X111058Y747045D01*
X110710Y746021D01*
X110296Y745023D01*
X109818Y744053D01*
X109278Y743117D01*
X108677Y742218D01*
X108019Y741361D01*
X107307Y740548D01*
X106542Y739784D01*
X105729Y739071D01*
X104872Y738413D01*
X103973Y737812D01*
X103037Y737272D01*
X102067Y736794D01*
X101069Y736380D01*
X100045Y736032D01*
X99001Y735753D01*
X97941Y735542D01*
X96869Y735401D01*
X95790Y735330D01*
X94710Y735330D01*
X93631Y735401D01*
X92559Y735542D01*
X91499Y735753D01*
X90455Y736032D01*
X89431Y736380D01*
X88433Y736794D01*
X87463Y737272D01*
X86527Y737812D01*
X85628Y738413D01*
X84771Y739071D01*
X83958Y739784D01*
X83194Y740548D01*
X82481Y741361D01*
X81823Y742218D01*
X81222Y743117D01*
X80682Y744053D01*
X80204Y745023D01*
X79790Y746021D01*
X79442Y747045D01*
X79163Y748089D01*
X78952Y749149D01*
X78811Y750221D01*
X78740Y751300D01*
X78740Y752380D01*
X78811Y753459D01*
X78952Y754531D01*
X79163Y755591D01*
X79442Y756635D01*
X79790Y757659D01*
X80204Y758657D01*
X80682Y759627D01*
X81222Y760563D01*
X81823Y761462D01*
X82481Y762319D01*
X83194Y763132D01*
X83958Y763897D01*
X84771Y764609D01*
X85628Y765267D01*
X86527Y765868D01*
X87463Y766408D01*
X88433Y766886D01*
X89431Y767300D01*
X90455Y767648D01*
X91499Y767927D01*
X92559Y768138D01*
X93631Y768279D01*
X94710Y768350D01*
X95790Y768350D01*
X96869Y768279D01*
X97941Y768138D01*
X99001Y767927D01*
X100045Y767648D01*
X101069Y767300D01*
X102067Y766886D01*
X103037Y766408D01*
X103973Y765868D01*
X104872Y765267D01*
X105729Y764609D01*
X106542Y763897D01*
X107307Y763132D01*
X108019Y762319D01*
X108677Y761462D01*
X109278Y760563D01*
X109818Y759627D01*
X110296Y758657D01*
X110710Y757659D01*
X111058Y756635D01*
X111337Y755591D01*
X111548Y754531D01*
X111689Y753459D01*
X111760Y752380D01*
X111760Y751300D01*
X64125Y47085D02*
X64054Y46007D01*
X63913Y44936D01*
X63703Y43876D01*
X63423Y42833D01*
X63076Y41810D01*
X62662Y40812D01*
X62185Y39843D01*
X61644Y38907D01*
X61044Y38009D01*
X60387Y37152D01*
X59674Y36340D01*
X58910Y35576D01*
X58098Y34864D01*
X57241Y34206D01*
X56343Y33606D01*
X55407Y33066D01*
X54438Y32588D01*
X53440Y32174D01*
X52417Y31827D01*
X51374Y31547D01*
X50314Y31337D01*
X49243Y31196D01*
X48165Y31125D01*
X47085Y31125D01*
X46007Y31196D01*
X44936Y31337D01*
X43876Y31547D01*
X42833Y31827D01*
X41810Y32174D01*
X40812Y32588D01*
X39843Y33066D01*
X38907Y33606D01*
X38009Y34206D01*
X37152Y34864D01*
X36340Y35576D01*
X35576Y36340D01*
X34864Y37152D01*
X34206Y38009D01*
X33606Y38907D01*
X33066Y39843D01*
X32588Y40812D01*
X32174Y41810D01*
X31827Y42833D01*
X31547Y43876D01*
X31337Y44936D01*
X31196Y46007D01*
X31125Y47085D01*
X31125Y48165D01*
X31196Y49243D01*
X31337Y50314D01*
X31547Y51374D01*
X31827Y52417D01*
X32174Y53440D01*
X32588Y54438D01*
X33066Y55407D01*
X33606Y56343D01*
X34206Y57241D01*
X34864Y58098D01*
X35576Y58910D01*
X36340Y59674D01*
X37152Y60387D01*
X38009Y61044D01*
X38907Y61644D01*
X39843Y62185D01*
X40812Y62662D01*
X41810Y63076D01*
X42833Y63423D01*
X43876Y63703D01*
X44936Y63913D01*
X46007Y64054D01*
X47085Y64125D01*
X48165Y64125D01*
X49243Y64054D01*
X50314Y63913D01*
X51374Y63703D01*
X52417Y63423D01*
X53440Y63076D01*
X54438Y62662D01*
X55407Y62185D01*
X56343Y61644D01*
X57241Y61044D01*
X58098Y60387D01*
X58910Y59674D01*
X59674Y58910D01*
X60387Y58098D01*
X61044Y57241D01*
X61644Y56343D01*
X62185Y55407D01*
X62662Y54438D01*
X63076Y53440D01*
X63423Y52417D01*
X63703Y51374D01*
X63913Y50314D01*
X64054Y49243D01*
X64125Y48165D01*
X64125Y47085D01*
X349875Y47085D02*
X349804Y46007D01*
X349663Y44936D01*
X349453Y43876D01*
X349173Y42833D01*
X348826Y41810D01*
X348412Y40812D01*
X347935Y39843D01*
X347394Y38907D01*
X346794Y38009D01*
X346137Y37152D01*
X345424Y36340D01*
X344660Y35576D01*
X343848Y34864D01*
X342991Y34206D01*
X342093Y33606D01*
X341157Y33066D01*
X340188Y32588D01*
X339190Y32174D01*
X338167Y31827D01*
X337124Y31547D01*
X336064Y31337D01*
X334993Y31196D01*
X333915Y31125D01*
X332835Y31125D01*
X331757Y31196D01*
X330686Y31337D01*
X329626Y31547D01*
X328583Y31827D01*
X327560Y32174D01*
X326562Y32588D01*
X325593Y33066D01*
X324657Y33606D01*
X323759Y34206D01*
X322902Y34864D01*
X322090Y35576D01*
X321326Y36340D01*
X320614Y37152D01*
X319956Y38009D01*
X319356Y38907D01*
X318816Y39843D01*
X318338Y40812D01*
X317924Y41810D01*
X317577Y42833D01*
X317297Y43876D01*
X317087Y44936D01*
X316946Y46007D01*
X316875Y47085D01*
X316875Y48165D01*
X316946Y49243D01*
X317087Y50314D01*
X317297Y51374D01*
X317577Y52417D01*
X317924Y53440D01*
X318338Y54438D01*
X318816Y55407D01*
X319356Y56343D01*
X319956Y57241D01*
X320614Y58098D01*
X321326Y58910D01*
X322090Y59674D01*
X322902Y60387D01*
X323759Y61044D01*
X324657Y61644D01*
X325593Y62185D01*
X326562Y62662D01*
X327560Y63076D01*
X328583Y63423D01*
X329626Y63703D01*
X330686Y63913D01*
X331757Y64054D01*
X332835Y64125D01*
X333915Y64125D01*
X334993Y64054D01*
X336064Y63913D01*
X337124Y63703D01*
X338167Y63423D01*
X339190Y63076D01*
X340188Y62662D01*
X341157Y62185D01*
X342093Y61644D01*
X342991Y61044D01*
X343848Y60387D01*
X344660Y59674D01*
X345424Y58910D01*
X346137Y58098D01*
X346794Y57241D01*
X347394Y56343D01*
X347935Y55407D01*
X348412Y54438D01*
X348826Y53440D01*
X349173Y52417D01*
X349453Y51374D01*
X349663Y50314D01*
X349804Y49243D01*
X349875Y48165D01*
X349875Y47085D01*
X64125Y1221835D02*
X64054Y1220757D01*
X63913Y1219686D01*
X63703Y1218626D01*
X63423Y1217583D01*
X63076Y1216560D01*
X62662Y1215562D01*
X62185Y1214593D01*
X61644Y1213657D01*
X61044Y1212759D01*
X60387Y1211902D01*
X59674Y1211090D01*
X58910Y1210326D01*
X58098Y1209614D01*
X57241Y1208956D01*
X56343Y1208356D01*
X55407Y1207816D01*
X54438Y1207338D01*
X53440Y1206924D01*
X52417Y1206577D01*
X51374Y1206297D01*
X50314Y1206087D01*
X49243Y1205946D01*
X48165Y1205875D01*
X47085Y1205875D01*
X46007Y1205946D01*
X44936Y1206087D01*
X43876Y1206297D01*
X42833Y1206577D01*
X41810Y1206924D01*
X40812Y1207338D01*
X39843Y1207816D01*
X38907Y1208356D01*
X38009Y1208956D01*
X37152Y1209614D01*
X36340Y1210326D01*
X35576Y1211090D01*
X34864Y1211902D01*
X34206Y1212759D01*
X33606Y1213657D01*
X33066Y1214593D01*
X32588Y1215562D01*
X32174Y1216560D01*
X31827Y1217583D01*
X31547Y1218626D01*
X31337Y1219686D01*
X31196Y1220757D01*
X31125Y1221835D01*
X31125Y1222915D01*
X31196Y1223993D01*
X31337Y1225064D01*
X31547Y1226124D01*
X31827Y1227167D01*
X32174Y1228190D01*
X32588Y1229188D01*
X33066Y1230157D01*
X33606Y1231093D01*
X34206Y1231991D01*
X34864Y1232848D01*
X35576Y1233660D01*
X36340Y1234424D01*
X37152Y1235137D01*
X38009Y1235794D01*
X38907Y1236394D01*
X39843Y1236935D01*
X40812Y1237412D01*
X41810Y1237826D01*
X42833Y1238173D01*
X43876Y1238453D01*
X44936Y1238663D01*
X46007Y1238804D01*
X47085Y1238875D01*
X48165Y1238875D01*
X49243Y1238804D01*
X50314Y1238663D01*
X51374Y1238453D01*
X52417Y1238173D01*
X53440Y1237826D01*
X54438Y1237412D01*
X55407Y1236935D01*
X56343Y1236394D01*
X57241Y1235794D01*
X58098Y1235137D01*
X58910Y1234424D01*
X59674Y1233660D01*
X60387Y1232848D01*
X61044Y1231991D01*
X61644Y1231093D01*
X62185Y1230157D01*
X62662Y1229188D01*
X63076Y1228190D01*
X63423Y1227167D01*
X63703Y1226124D01*
X63913Y1225064D01*
X64054Y1223993D01*
X64125Y1222915D01*
X64125Y1221835D01*
X349875Y1221835D02*
X349804Y1220757D01*
X349663Y1219686D01*
X349453Y1218626D01*
X349173Y1217583D01*
X348826Y1216560D01*
X348412Y1215562D01*
X347935Y1214593D01*
X347394Y1213657D01*
X346794Y1212759D01*
X346137Y1211902D01*
X345424Y1211090D01*
X344660Y1210326D01*
X343848Y1209614D01*
X342991Y1208956D01*
X342093Y1208356D01*
X341157Y1207816D01*
X340188Y1207338D01*
X339190Y1206924D01*
X338167Y1206577D01*
X337124Y1206297D01*
X336064Y1206087D01*
X334993Y1205946D01*
X333915Y1205875D01*
X332835Y1205875D01*
X331757Y1205946D01*
X330686Y1206087D01*
X329626Y1206297D01*
X328583Y1206577D01*
X327560Y1206924D01*
X326562Y1207338D01*
X325593Y1207816D01*
X324657Y1208356D01*
X323759Y1208956D01*
X322902Y1209614D01*
X322090Y1210326D01*
X321326Y1211090D01*
X320614Y1211902D01*
X319956Y1212759D01*
X319356Y1213657D01*
X318816Y1214593D01*
X318338Y1215562D01*
X317924Y1216560D01*
X317577Y1217583D01*
X317297Y1218626D01*
X317087Y1219686D01*
X316946Y1220757D01*
X316875Y1221835D01*
X316875Y1222915D01*
X316946Y1223993D01*
X317087Y1225064D01*
X317297Y1226124D01*
X317577Y1227167D01*
X317924Y1228190D01*
X318338Y1229188D01*
X318816Y1230157D01*
X319356Y1231093D01*
X319956Y1231991D01*
X320614Y1232848D01*
X321326Y1233660D01*
X322090Y1234424D01*
X322902Y1235137D01*
X323759Y1235794D01*
X324657Y1236394D01*
X325593Y1236935D01*
X326562Y1237412D01*
X327560Y1237826D01*
X328583Y1238173D01*
X329626Y1238453D01*
X330686Y1238663D01*
X331757Y1238804D01*
X332835Y1238875D01*
X333915Y1238875D01*
X334993Y1238804D01*
X336064Y1238663D01*
X337124Y1238453D01*
X338167Y1238173D01*
X339190Y1237826D01*
X340188Y1237412D01*
X341157Y1236935D01*
X342093Y1236394D01*
X342991Y1235794D01*
X343848Y1235137D01*
X344660Y1234424D01*
X345424Y1233660D01*
X346137Y1232848D01*
X346794Y1231991D01*
X347394Y1231093D01*
X347935Y1230157D01*
X348412Y1229188D01*
X348826Y1228190D01*
X349173Y1227167D01*
X349453Y1226124D01*
X349663Y1225064D01*
X349804Y1223993D01*
X349875Y1222915D01*
X349875Y1221835D01*
M02*
