G04 EAGLE Gerber RS-274X export*
G75*
%MOMM*%
%FSLAX34Y34*%
%LPD*%
%INSoldermask Top*%
%IPPOS*%
%AMOC8*
5,1,8,0,0,1.08239X$1,22.5*%
G01*
%ADD10P,1.539592X8X292.500000*%
%ADD11C,1.422400*%
%ADD12C,1.879600*%
%ADD13C,1.727200*%
%ADD14C,3.505200*%
%ADD15P,1.649562X8X22.500000*%
%ADD16C,2.489200*%
%ADD17C,3.503200*%
%ADD18C,2.209800*%
%ADD19P,4.343848X8X22.500000*%
%ADD20R,1.727200X1.727200*%
%ADD21C,1.727200*%
%ADD22C,2.146300*%
%ADD23P,1.649562X8X112.500000*%
%ADD24P,1.649562X8X202.500000*%
%ADD25R,1.701800X1.701800*%
%ADD26C,1.701800*%
%ADD27R,1.549400X1.549400*%
%ADD28C,1.549400*%
%ADD29C,1.621200*%
%ADD30C,0.959600*%


D10*
X171450Y491490D03*
D11*
X171450Y509270D03*
D10*
X88900Y541020D03*
D11*
X88900Y558800D03*
D12*
X330200Y114300D03*
X330200Y215900D03*
D13*
X69850Y594360D02*
X69850Y609600D01*
X95250Y609600D02*
X95250Y594360D01*
X120650Y594360D02*
X120650Y609600D01*
D14*
X95250Y751840D03*
D15*
X177864Y592540D03*
X279464Y592540D03*
X106594Y291270D03*
X208194Y291270D03*
D16*
X280000Y1140000D03*
X78070Y1140000D03*
X280000Y830000D03*
X212690Y830000D03*
X145380Y830000D03*
X78070Y830000D03*
D17*
X47625Y47625D03*
X333375Y47625D03*
X47625Y1222375D03*
X333375Y1222375D03*
D18*
X277876Y200660D03*
X125222Y200660D03*
X74930Y200660D03*
X24384Y200660D03*
X24384Y124968D03*
X74930Y124968D03*
X125222Y124968D03*
X277876Y124968D03*
D19*
X266929Y1222502D03*
X115087Y1222502D03*
X325196Y635000D03*
X325196Y682625D03*
X325196Y730250D03*
X238125Y47625D03*
X142875Y47625D03*
D20*
X262890Y486664D03*
D21*
X288290Y486664D03*
X313690Y486664D03*
X339090Y486664D03*
X339090Y562864D03*
X313690Y562864D03*
X288290Y562864D03*
X262890Y562864D03*
D22*
X277876Y445770D03*
X127762Y445770D03*
X77724Y445770D03*
X27686Y445770D03*
X27686Y370840D03*
X77724Y370840D03*
X127762Y370840D03*
X277876Y370840D03*
D12*
X330200Y457200D03*
X330200Y355600D03*
D23*
X22860Y749300D03*
X22860Y774700D03*
D19*
X31750Y558800D03*
X31750Y499110D03*
X31750Y314960D03*
X31750Y254000D03*
D10*
X113030Y491490D03*
D11*
X113030Y509270D03*
D24*
X208194Y261270D03*
X106594Y261270D03*
D11*
X238125Y499110D03*
X212725Y524510D03*
X238125Y549910D03*
D25*
X340106Y326390D03*
D26*
X314706Y326390D03*
X289306Y326390D03*
X263906Y326390D03*
X263906Y250190D03*
X289306Y250190D03*
X314706Y250190D03*
X340106Y250190D03*
D27*
X190500Y769620D03*
D28*
X190500Y718820D03*
X266700Y718820D03*
X266700Y769620D03*
D15*
X177864Y652540D03*
X279464Y652540D03*
D24*
X208194Y321270D03*
X106594Y321270D03*
D15*
X177864Y682540D03*
X279464Y682540D03*
D23*
X22860Y685800D03*
X22860Y711200D03*
D15*
X177864Y622540D03*
X279464Y622540D03*
D29*
X190500Y1209040D03*
X198500Y1221740D03*
X190500Y1234440D03*
X198500Y1247140D03*
D12*
X232410Y336550D03*
X232410Y234950D03*
D30*
X250698Y431292D03*
X196596Y806196D03*
X189230Y1055370D03*
X189230Y1045210D03*
X281940Y637032D03*
X307848Y461772D03*
X122682Y550164D03*
X180594Y550164D03*
X251460Y332232D03*
X187452Y704088D03*
X198882Y391668D03*
X320802Y512826D03*
M02*
